<svg width="1717" height="238" viewBox="0 0 1717 238" fill="none" xmlns="http://www.w3.org/2000/svg">
<path d="M217.114 100.48C209.791 106.726 202.36 113.08 194.821 119.542C187.498 125.788 180.282 132.358 173.174 139.25C200.098 135.373 226.484 129.881 252.331 122.773C278.393 115.45 303.271 105.542 326.964 93.049C330.41 91.3259 334.502 88.9566 339.241 85.9411C344.195 82.7102 349.041 79.264 353.78 75.6023C358.518 71.9407 362.719 68.0637 366.38 63.9712C370.257 59.6634 372.734 55.4633 373.811 51.3708C375.104 47.2784 374.565 43.4014 372.196 39.7397C370.042 35.8627 365.411 32.4164 358.303 29.4009C349.257 25.5239 339.672 22.8315 329.548 21.3238C319.425 19.6007 309.086 18.5237 298.532 18.0929C288.193 17.6621 277.855 17.7698 267.516 18.416C257.177 19.0622 247.161 19.7084 237.469 20.3545C220.884 21.4315 203.868 23.2623 186.421 25.847C168.974 28.2163 151.851 31.7702 135.05 36.5089C118.25 41.2475 102.095 47.4938 86.5872 55.2479C71.2945 63.002 57.4017 72.8022 44.9091 84.6488C38.4473 90.8951 32.9548 97.7876 28.4316 105.326C24.1238 112.865 21.4314 120.619 20.3545 128.589C19.4929 136.343 20.5699 143.989 23.5853 151.528C26.8162 158.851 32.8472 165.313 41.6782 170.913C43.8321 172.421 45.7706 174.036 47.4937 175.759C49.2169 177.267 49.7553 179.529 49.1092 182.544C48.463 185.559 46.7399 187.713 43.9398 189.006C41.1397 190.298 38.4473 190.19 35.8626 188.683C28.9701 184.59 22.7238 179.636 17.1236 173.821C11.7388 168.005 7.5387 161.328 4.52322 153.789C1.50775 145.389 0.430792 137.096 1.29236 128.912C2.15392 120.511 4.30783 112.542 7.75409 105.003C11.4157 97.2491 15.9389 90.0335 21.3237 83.3564C26.9239 76.6793 32.8472 70.6483 39.0935 65.2636C53.5247 52.9863 69.4636 43.0783 86.9103 35.5396C104.357 28.0009 122.127 21.7546 140.22 16.8006C156.589 12.4928 172.959 9.26189 189.329 7.10798C205.914 4.73867 222.607 3.01554 239.407 1.93858C258.146 0.646239 276.993 0.107762 295.947 0.323151C315.117 0.538539 333.856 3.12323 352.164 8.07723C359.488 10.2311 366.811 13.2466 374.134 17.1237C381.673 21.0007 387.273 26.6009 390.935 33.9242C394.596 41.4628 395.027 48.8938 392.227 56.2171C389.642 63.5404 385.873 70.0022 380.919 75.6023C375.75 81.4179 369.934 86.695 363.472 91.4336C357.226 96.1722 350.549 100.48 343.441 104.357C336.333 108.234 329.118 111.788 321.794 115.019C314.471 118.034 307.255 120.834 300.147 123.419C281.193 130.742 262.023 136.881 242.638 141.835C223.253 146.789 203.545 150.989 183.513 154.435L190.621 156.697C196.006 158.636 201.068 161.436 205.806 165.097C210.545 168.544 214.206 172.528 216.791 177.052C219.591 181.575 220.884 186.421 220.668 191.59C220.668 196.975 218.407 202.468 213.883 208.068C210.222 212.376 205.914 216.037 200.96 219.053C196.006 222.068 190.729 224.438 185.129 226.161C179.744 228.099 174.144 229.499 168.328 230.361C162.728 231.222 157.236 231.761 151.851 231.976C148.189 232.192 144.42 232.192 140.543 231.976C136.666 231.761 132.896 231.115 129.235 230.038C125.573 229.176 122.127 227.776 118.896 225.838C115.665 223.899 113.08 221.207 111.142 217.76C108.557 213.453 107.372 208.929 107.588 204.191C107.803 199.452 108.773 194.714 110.496 189.975C112.219 185.452 114.48 180.929 117.28 176.405C120.296 172.098 123.311 168.005 126.327 164.128C122.665 164.128 118.788 164.451 114.696 165.097C110.603 165.528 106.834 165.313 103.388 164.451C101.234 164.02 99.403 163.482 97.8953 162.836C96.3875 162.19 95.2029 160.682 94.3413 158.313C92.8336 154.435 93.2643 151.635 95.6336 149.912C98.003 147.974 100.695 146.789 103.711 146.358C104.572 145.497 105.757 145.174 107.265 145.389C108.773 145.389 110.388 145.497 112.111 145.712C117.496 145.281 122.881 144.851 128.265 144.42C133.65 143.774 139.143 143.235 144.743 142.804C150.774 136.343 157.02 130.096 163.482 124.065C169.944 118.034 176.513 112.003 183.19 105.972C186.852 102.742 190.729 98.8646 194.821 94.3414C199.129 89.8181 203.545 86.695 208.068 84.9718C210.437 84.1103 212.591 84.1103 214.53 84.9718C216.468 85.8334 217.976 87.2334 219.053 89.172C220.13 90.8951 220.56 92.8336 220.345 94.9875C220.13 97.1414 219.053 98.9723 217.114 100.48ZM155.728 166.067C154.651 165.851 153.466 165.744 152.174 165.744C151.097 165.528 150.02 165.42 148.943 165.42C143.774 171.451 138.82 178.236 134.081 185.775C132.142 188.79 130.419 191.806 128.912 194.821C127.619 198.052 126.973 200.96 126.973 203.545C126.973 206.129 127.835 208.391 129.558 210.329C131.496 212.268 134.727 213.56 139.25 214.206C145.497 215.283 151.743 215.499 157.989 214.853C164.451 214.422 170.59 213.345 176.405 211.622C178.775 210.976 181.898 209.683 185.775 207.745C189.867 206.022 193.529 203.868 196.76 201.283C200.206 198.698 202.575 195.791 203.868 192.56C205.16 189.544 204.406 186.313 201.606 182.867C199.021 179.852 195.898 177.375 192.237 175.436C188.575 173.282 184.59 171.667 180.282 170.59C176.19 169.297 171.99 168.328 167.682 167.682C163.374 167.036 159.389 166.497 155.728 166.067ZM428.208 160.897C417.223 161.113 406.023 161.436 394.607 161.866C383.192 162.082 371.991 160.79 361.006 157.989C360.145 157.989 359.283 157.774 358.422 157.343C357.129 161.005 355.191 164.559 352.606 168.005C350.237 171.236 347.544 174.036 344.529 176.405C341.513 178.775 338.175 180.498 334.513 181.575C331.067 182.652 327.621 182.759 324.175 181.898C320.944 181.036 318.574 179.421 317.067 177.052C315.343 174.682 314.374 171.99 314.159 168.974C313.943 165.959 314.374 162.943 315.451 159.928C316.313 156.912 317.605 154.22 319.328 151.851C322.128 148.405 325.682 145.82 329.99 144.097C334.298 142.374 338.606 142.158 342.914 143.451C343.344 140.435 345.067 138.066 348.083 136.343C351.098 134.619 354.329 134.835 357.776 136.989C361.006 138.927 364.453 140.435 368.114 141.512C371.991 142.374 375.976 142.912 380.069 143.127C384.161 143.343 388.146 143.451 392.023 143.451C396.115 143.235 399.992 143.127 403.654 143.127C407.962 143.127 412.593 142.912 417.547 142.481C422.501 141.835 427.024 142.158 431.116 143.451C433.485 144.312 435.101 145.712 435.962 147.651C437.039 149.589 437.363 151.528 436.932 153.466C436.716 155.405 435.855 157.128 434.347 158.636C432.839 160.143 430.793 160.897 428.208 160.897ZM331.606 165.097C332.252 164.451 333.544 164.128 335.483 164.128V161.22C335.052 161.651 334.406 162.19 333.544 162.836C332.682 163.267 332.036 164.02 331.606 165.097ZM497.887 162.19C496.379 162.19 494.333 162.297 491.748 162.513C489.163 162.513 486.363 162.513 483.348 162.513C482.917 167.251 480.332 171.559 475.594 175.436C470.855 179.098 465.363 181.898 459.116 183.836C452.87 185.775 446.623 186.744 440.377 186.744C434.346 186.744 429.715 185.344 426.484 182.544C421.746 178.452 419.484 173.605 419.7 168.005C419.7 162.405 421.315 156.482 424.546 150.235C427.561 143.774 431.762 137.312 437.146 130.85C442.531 124.173 448.024 117.927 453.624 112.111C459.439 106.296 464.824 101.126 469.778 96.603C474.732 92.0798 478.501 88.6335 481.086 86.2642L505.641 63.9712C506.933 62.8943 508.333 61.6019 509.841 60.0942C511.564 58.371 513.287 56.8633 515.01 55.571C516.733 54.0632 518.564 52.9863 520.503 52.3401C522.441 51.6939 524.38 51.8016 526.318 52.6632C530.411 54.6017 531.703 57.4018 530.195 61.0634C528.903 64.5097 526.426 68.0637 522.764 71.7253C519.318 75.1716 515.549 78.4024 511.456 81.4179C507.364 84.4334 504.779 86.4796 503.702 87.5565C494.225 95.9568 485.071 104.572 476.24 113.403C467.624 122.235 459.655 131.819 452.331 142.158C451.47 143.235 450.285 145.174 448.777 147.974C447.485 150.774 446.085 153.682 444.577 156.697C443.07 159.713 441.669 162.405 440.377 164.774C439.085 167.144 438.331 168.328 438.116 168.328L438.439 168.651C439.3 169.297 440.808 169.513 442.962 169.297C445.331 169.082 447.808 168.759 450.393 168.328C452.978 167.897 455.455 167.359 457.824 166.713C460.409 165.851 462.347 165.205 463.639 164.774C466.655 163.697 469.024 162.405 470.747 160.897C467.732 159.82 465.255 158.42 463.316 156.697C461.378 154.759 460.947 152.066 462.024 148.62C462.67 146.035 463.747 144.42 465.255 143.774C466.763 142.912 468.486 142.481 470.424 142.481C472.363 142.481 474.409 142.697 476.563 143.127C478.717 143.558 480.655 143.774 482.378 143.774C487.763 144.204 493.148 144.42 498.533 144.42C503.918 144.204 509.302 144.097 514.687 144.097L548.934 143.127C550.657 143.127 553.027 143.235 556.042 143.451C559.273 143.666 562.181 144.312 564.765 145.389C567.35 146.251 569.181 147.651 570.258 149.589C571.335 151.312 570.581 153.897 567.996 157.343C566.704 159.282 564.55 160.574 561.535 161.22C558.735 161.866 555.719 162.19 552.488 162.19C549.257 162.19 546.026 162.082 542.796 161.866C539.565 161.651 536.98 161.543 535.042 161.543C528.795 161.759 522.549 161.974 516.302 162.19C510.272 162.19 504.133 162.19 497.887 162.19ZM660.424 119.219C658.055 110.388 658.809 101.88 662.686 93.6952C666.778 85.5103 672.379 77.8639 679.487 70.756C686.594 63.6481 694.348 57.2941 702.749 51.6939C711.149 46.0938 718.472 41.3552 724.719 37.4781C735.057 31.2318 745.719 25.6316 756.704 20.6776C767.689 15.7236 778.997 11.4158 790.628 7.75414C794.29 6.67719 798.49 5.60023 803.229 4.52328C807.967 3.23094 812.706 2.47707 817.444 2.26166C822.398 1.83089 827.029 2.26167 831.337 3.55401C835.645 4.63097 839.307 6.89258 842.322 10.3388C843.83 12.7081 844.584 15.1851 844.584 17.7698C844.799 20.3545 844.476 22.9392 843.615 25.5239C842.968 27.8932 841.891 30.3702 840.384 32.9549C839.091 35.3242 837.799 37.4781 836.507 39.4166C829.829 50.1862 822.506 60.525 814.537 70.4329C806.567 80.3409 798.705 90.2489 790.951 100.157C782.767 110.496 774.582 120.727 766.397 130.85C758.427 140.974 750.673 151.42 743.135 162.19C739.473 167.574 735.811 172.959 732.15 178.344C728.703 183.729 725.473 189.329 722.457 195.144C722.026 195.791 721.38 197.083 720.519 199.021C719.657 201.175 718.688 203.222 717.611 205.16C716.749 207.314 715.995 209.253 715.349 210.976C714.918 212.699 714.811 213.668 715.026 213.883C717.395 215.391 720.195 216.037 723.426 215.822C726.657 215.822 729.996 215.391 733.442 214.53C736.888 213.883 740.227 212.914 743.458 211.622C746.904 210.545 749.812 209.576 752.181 208.714C761.874 205.268 771.351 201.391 780.613 197.083C789.874 192.775 799.029 188.144 808.075 183.19C825.522 173.713 842.538 163.805 859.123 153.466C875.923 142.912 892.508 131.927 908.878 120.511C923.955 109.742 938.817 98.7569 953.464 87.5565C968.111 76.3562 982.219 64.2943 995.788 51.3708C1001.17 46.4168 1006.34 41.2475 1011.3 35.8627C1016.47 30.2625 1020.88 24.3393 1024.54 18.0929C1025.62 16.5852 1026.48 15.0774 1027.13 13.5697C1027.77 12.062 1028.96 10.8773 1030.68 10.0158C1033.91 8.29263 1037.04 8.50802 1040.05 10.6619C1043.07 12.6004 1044.36 15.4005 1043.93 19.0622C1043.5 21.6469 1042.64 24.2316 1041.34 26.8163C1040.05 29.4009 1038.44 31.8779 1036.5 34.2473C1034.56 36.6165 1032.51 38.9858 1030.36 41.3552C1028.42 43.5091 1026.7 45.4476 1025.19 47.1707C1018.94 54.0632 1012.37 60.6327 1005.48 66.879C998.804 73.1253 991.911 79.3717 984.803 85.618C969.941 98.1107 954.649 110.065 938.925 121.481C923.417 132.681 907.586 143.666 891.431 154.435C875.277 165.205 858.8 175.436 841.999 185.129C825.414 194.821 808.398 203.76 790.951 211.945C785.567 214.53 779.105 217.545 771.566 220.991C764.028 224.653 756.166 227.668 747.981 230.038C740.011 232.622 732.15 234.022 724.396 234.238C716.857 234.453 710.18 232.515 704.364 228.422C700.703 225.622 698.549 222.176 697.902 218.084C697.256 214.206 697.472 210.114 698.549 205.806C699.626 201.714 701.133 197.621 703.072 193.529C705.226 189.652 707.164 186.206 708.887 183.19C714.703 173.282 720.949 163.805 727.626 154.759C734.519 145.712 741.411 136.666 748.304 127.619C755.627 117.927 762.951 108.449 770.274 99.1877C777.597 89.9258 785.028 80.5563 792.567 71.0791C796.228 66.1251 799.89 61.1711 803.552 56.2171C807.213 51.2631 810.767 46.3091 814.214 41.3552C815.937 38.7705 818.306 35.5396 821.322 31.6626C824.337 27.7855 826.168 24.0162 826.814 20.3545C825.091 19.493 822.398 19.2776 818.737 19.7083C815.075 20.1391 811.198 20.893 807.106 21.97C803.013 22.8315 799.136 23.9085 795.475 25.2008C791.813 26.2778 789.228 27.1393 787.721 27.7855C776.089 31.8779 764.674 36.8319 753.473 42.6475C742.273 48.2477 731.503 54.494 721.165 61.3865C717.288 63.9712 713.088 66.879 708.564 70.1099C704.041 73.3407 699.733 76.8947 695.641 80.7717C691.764 84.4334 688.21 88.5258 684.979 93.049C681.748 97.3568 679.487 101.88 678.194 106.619C677.548 108.773 677.44 110.603 677.871 112.111C678.302 113.619 678.41 115.45 678.194 117.604C677.979 120.188 677.01 122.235 675.286 123.742C673.779 125.035 671.948 125.788 669.794 126.004C667.855 126.004 665.917 125.465 663.978 124.388C662.255 123.311 661.071 121.588 660.424 119.219ZM828.106 21.0007C827.891 21.0007 827.676 20.893 827.46 20.6776C827.891 21.1084 828.106 21.3238 828.106 21.3238V21.0007ZM1033.34 142.804C1034.42 143.235 1035.39 143.774 1036.25 144.42C1037.11 144.851 1037.86 145.389 1038.51 146.035C1042.82 145.604 1047.12 146.251 1051.43 147.974C1055.74 150.343 1058 152.928 1058.22 155.728C1058.43 158.313 1057.68 161.113 1055.96 164.128C1060.69 163.482 1065.43 162.405 1070.17 160.897C1075.13 159.389 1079.97 157.666 1084.71 155.728C1089.45 153.789 1094.08 151.851 1098.6 149.912C1103.34 147.974 1107.86 146.358 1112.17 145.066C1114.54 144.42 1117.02 143.774 1119.6 143.127C1122.4 142.481 1124.99 143.02 1127.36 144.743C1129.3 146.251 1130.48 147.866 1130.91 149.589C1131.34 151.312 1131.23 153.035 1130.59 154.759C1129.94 156.266 1128.87 157.666 1127.36 158.959C1125.85 160.251 1124.13 161.005 1122.19 161.22C1115.3 162.297 1108.51 164.343 1101.83 167.359C1095.16 170.159 1088.59 172.636 1082.13 174.79C1079.11 175.867 1075.88 177.052 1072.43 178.344C1068.99 179.636 1065.43 180.713 1061.77 181.575C1058.11 182.436 1054.45 182.867 1050.79 182.867C1047.12 183.082 1043.68 182.652 1040.45 181.575C1036.79 179.852 1034.42 177.698 1033.34 175.113C1032.48 172.313 1032.59 169.405 1033.66 166.39C1029.35 167.036 1025.05 168.005 1020.74 169.297C1015.14 171.021 1009.54 172.959 1003.94 175.113C998.554 177.267 993.061 178.882 987.461 179.959C983.8 180.605 980.03 180.605 976.153 179.959C972.276 179.313 969.368 177.159 967.43 173.498C965.061 168.974 964.953 164.774 967.107 160.897C969.045 156.805 972.168 153.359 976.476 150.558C980.569 147.543 985.092 145.174 990.046 143.451C995 141.512 999.092 140.327 1002.32 139.897C1007.71 139.25 1012.99 139.25 1018.15 139.897C1023.32 140.327 1028.39 141.297 1033.34 142.804ZM990.692 161.866C992.846 161.436 995 160.897 997.154 160.251C999.308 159.605 1001.46 158.851 1003.62 157.989C998.446 158.636 994.138 159.928 990.692 161.866ZM1122.56 143.127C1126.65 143.127 1129.78 144.635 1131.93 147.651C1134.09 150.666 1134.52 153.359 1133.22 155.728C1132.15 158.097 1130.64 160.466 1128.7 162.836C1132.58 162.836 1136.45 162.297 1140.33 161.22C1144.42 160.143 1148.41 158.851 1152.29 157.343C1156.38 155.62 1160.36 153.897 1164.24 152.174C1168.12 150.451 1171.78 149.051 1175.23 147.974C1178.24 147.328 1181.36 147.004 1184.59 147.004C1188.04 147.004 1190.95 148.189 1193.32 150.558C1195.04 152.712 1195.9 154.651 1195.9 156.374C1196.12 158.097 1195.79 159.713 1194.93 161.22L1210.76 156.374C1216.8 154.651 1222.72 153.035 1228.53 151.528C1234.35 149.805 1240.27 148.189 1246.3 146.681C1247.81 146.251 1249.53 145.712 1251.47 145.066C1253.63 144.42 1255.67 143.881 1257.61 143.451C1259.77 143.02 1261.81 142.912 1263.75 143.127C1265.69 143.127 1267.41 143.666 1268.92 144.743C1270.86 146.035 1272.04 147.651 1272.47 149.589C1272.9 151.312 1272.8 153.035 1272.15 154.759C1271.72 156.482 1270.75 157.989 1269.24 159.282C1267.74 160.574 1265.9 161.22 1263.75 161.22C1256.43 161.866 1249.1 163.374 1241.78 165.744C1234.67 167.897 1227.57 170.267 1220.46 172.851C1213.35 175.221 1206.13 177.375 1198.81 179.313C1191.7 181.252 1184.49 182.221 1177.16 182.221C1173.29 182.221 1170.27 181.036 1168.12 178.667C1165.53 176.298 1164.24 173.605 1164.24 170.59C1156.92 173.39 1149.49 175.867 1141.95 178.021C1134.62 180.175 1127.52 180.713 1120.62 179.636C1116.32 178.99 1113.19 177.805 1111.25 176.082C1109.32 174.144 1108.24 171.99 1108.02 169.621C1107.81 167.036 1108.35 164.343 1109.64 161.543C1110.72 158.743 1112.12 156.051 1113.84 153.466C1113.41 151.097 1113.95 148.835 1115.45 146.681C1116.96 144.527 1119.33 143.343 1122.56 143.127ZM1403.77 161.22C1391.92 160.79 1380.19 161.759 1368.55 164.128C1357.14 166.497 1345.94 169.728 1334.95 173.821C1333.45 177.698 1331.29 181.467 1328.49 185.129C1325.69 189.006 1322.57 192.56 1319.12 195.791C1315.68 199.237 1312.23 202.36 1308.78 205.16C1305.55 207.96 1302.64 210.329 1300.06 212.268C1297.48 214.206 1293.92 216.899 1289.4 220.345C1284.88 223.791 1280.14 226.915 1275.18 229.715C1270.23 232.515 1265.27 234.453 1260.32 235.53C1255.15 236.823 1250.74 236.176 1247.07 233.592C1242.12 230.145 1240.18 226.161 1241.26 221.637C1242.12 217.114 1244.81 212.483 1249.34 207.745C1253.86 203.222 1259.57 198.591 1266.46 193.852C1273.35 189.329 1280.14 185.129 1286.81 181.252C1293.71 177.375 1299.84 174.144 1305.23 171.559C1310.83 168.974 1314.49 167.251 1316.21 166.39L1318.48 165.42V164.128C1315.89 163.697 1312.98 163.805 1309.75 164.451C1306.74 164.882 1303.61 165.744 1300.38 167.036C1297.15 168.113 1294.03 169.297 1291.01 170.59C1288 171.667 1285.31 172.636 1282.94 173.498C1280.35 174.359 1277.66 175.328 1274.86 176.405C1272.06 177.482 1269.15 178.344 1266.14 178.99C1263.34 179.852 1260.54 180.282 1257.74 180.282C1254.72 180.498 1251.92 180.067 1249.34 178.99C1245.67 177.267 1243.52 175.005 1242.87 172.205C1242.01 169.405 1242.12 166.605 1243.2 163.805C1244.06 160.79 1245.57 157.989 1247.72 155.405C1249.87 152.82 1252.14 150.666 1254.5 148.943C1260.54 144.635 1267.11 141.835 1274.21 140.543C1281.54 139.25 1288.75 139.035 1295.86 139.897C1298.44 140.327 1301.68 140.974 1305.55 141.835C1309.65 142.481 1312.77 143.989 1314.92 146.358C1319.23 145.928 1323.21 146.466 1326.88 147.974C1330.75 149.481 1333.55 152.389 1335.28 156.697C1335.28 157.343 1335.49 157.882 1335.92 158.313C1351.86 152.282 1367.91 147.866 1384.06 145.066C1385.57 144.851 1387.4 144.527 1389.56 144.097C1391.92 143.666 1394.29 143.343 1396.66 143.127C1399.03 142.697 1401.29 142.589 1403.45 142.804C1405.6 143.02 1407.43 143.558 1408.94 144.42C1410.88 145.712 1412.06 147.328 1412.49 149.266C1413.14 151.205 1413.14 153.143 1412.49 155.082C1412.06 156.805 1410.99 158.313 1409.26 159.605C1407.76 160.682 1405.92 161.22 1403.77 161.22ZM1291.98 195.791C1293.06 194.714 1294.46 193.529 1296.18 192.237C1297.91 190.944 1299.74 189.437 1301.68 187.713C1297.58 189.867 1293.92 191.914 1290.69 193.852C1289.4 194.498 1287.24 195.683 1284.23 197.406C1281.43 199.129 1278.41 201.068 1275.18 203.222C1271.95 205.591 1268.83 208.068 1265.81 210.653C1262.8 213.237 1260.64 215.607 1259.35 217.76C1265.17 216.037 1270.87 212.806 1276.47 208.068C1282.29 203.545 1287.46 199.452 1291.98 195.791ZM1318.8 164.128V164.451C1319.01 164.451 1319.12 164.343 1319.12 164.128H1318.8ZM1318.8 164.451C1318.8 164.451 1318.91 164.343 1319.12 164.128H1318.8V164.451ZM1516.42 63.6481C1505.65 69.8945 1495.53 77.3255 1486.05 85.9411C1476.57 94.3414 1467.31 102.957 1458.26 111.788C1453.09 116.742 1448.03 121.804 1443.08 126.973C1438.12 132.142 1433.17 137.312 1428.22 142.481C1425.63 145.497 1422.83 148.512 1419.82 151.528C1417.02 154.328 1414.22 157.343 1411.42 160.574C1415.94 159.497 1420.36 158.205 1424.66 156.697C1429.19 155.189 1433.28 153.897 1436.94 152.82C1440.17 152.174 1443.62 151.312 1447.28 150.235C1450.94 149.158 1454.6 148.297 1458.26 147.651C1461.93 146.789 1465.59 146.358 1469.25 146.358C1473.13 146.143 1476.68 146.681 1479.91 147.974C1484 149.481 1486.48 152.066 1487.34 155.728C1487.99 158.097 1487.77 160.359 1486.7 162.513C1490.36 161.436 1493.91 160.251 1497.36 158.959C1501.02 157.666 1504.47 156.482 1507.7 155.405C1513.94 153.466 1520.19 151.528 1526.44 149.589C1532.68 147.435 1539.04 145.712 1545.5 144.42C1547.22 143.989 1549.27 143.774 1551.64 143.774C1554.22 143.558 1556.48 143.774 1558.42 144.42C1560.36 145.066 1561.76 146.251 1562.62 147.974C1563.7 149.481 1563.81 151.743 1562.94 154.759C1562.3 156.697 1561.01 158.313 1559.07 159.605C1557.13 160.682 1554.87 161.543 1552.28 162.19C1549.7 162.836 1547.11 163.374 1544.53 163.805C1541.94 164.02 1539.9 164.343 1538.39 164.774C1531.07 166.928 1523.85 169.19 1516.74 171.559C1509.63 173.713 1502.53 175.867 1495.42 178.021C1491.76 179.098 1487.77 180.175 1483.46 181.252C1479.16 182.544 1475.06 182.759 1471.19 181.898C1469.68 181.682 1468.06 181.036 1466.34 179.959C1462.68 177.159 1460.96 174.575 1461.17 172.205C1461.39 169.836 1462.36 167.467 1464.08 165.097H1460.2C1452.45 166.39 1444.69 168.005 1436.94 169.944C1430.69 171.667 1424.34 173.605 1417.88 175.759C1411.63 177.913 1405.17 179.313 1398.49 179.959C1396.12 180.175 1393.75 179.744 1391.39 178.667C1389.02 177.805 1387.29 175.975 1386.22 173.174C1385.57 171.021 1385.68 168.759 1386.54 166.39C1387.18 164.02 1388.37 161.759 1390.09 159.605C1391.6 157.236 1393.32 155.082 1395.26 153.143C1396.99 151.205 1398.49 149.481 1399.79 147.974C1410.77 135.481 1422.19 123.527 1434.03 112.111C1445.88 100.48 1458.05 89.172 1470.54 78.187C1475.93 73.4484 1481.42 68.8175 1487.02 64.2943C1492.62 59.7711 1498.33 55.571 1504.14 51.6939C1506.51 49.9708 1509.1 48.8938 1511.9 48.4631C1514.91 47.8169 1517.39 49.0015 1519.33 52.017C1520.4 53.9555 1520.62 56.1094 1519.97 58.4787C1519.54 60.6327 1518.36 62.3558 1516.42 63.6481ZM1554.19 143.127C1555.91 143.127 1557.52 143.451 1559.03 144.097C1560.75 144.527 1562.15 145.389 1563.23 146.681C1565.17 149.051 1566.03 151.312 1565.82 153.466C1565.82 155.405 1565.28 157.343 1564.2 159.282C1569.8 158.205 1575.4 156.912 1581 155.405C1586.6 153.897 1592.2 152.389 1597.8 150.882C1600.39 150.235 1603.19 149.481 1606.2 148.62C1609.22 147.758 1612.23 147.112 1615.25 146.681C1618.48 146.251 1621.6 146.143 1624.62 146.358C1627.85 146.358 1630.76 147.004 1633.34 148.297C1637 150.02 1639.16 152.066 1639.8 154.435C1640.45 156.805 1640.23 159.282 1639.16 161.866C1642.17 161.005 1645.19 160.251 1648.2 159.605C1651.22 158.743 1654.23 157.774 1657.25 156.697C1663.07 154.974 1668.88 153.251 1674.7 151.528C1680.73 149.589 1686.76 147.758 1692.79 146.035C1695.59 145.174 1698.82 144.312 1702.48 143.451C1706.36 142.374 1709.7 142.804 1712.5 144.743C1714.22 146.035 1715.3 147.651 1715.73 149.589C1716.16 151.312 1716.05 153.143 1715.41 155.082C1714.97 156.805 1714.01 158.313 1712.5 159.605C1710.99 160.682 1709.27 161.22 1707.33 161.22C1699.14 161.866 1690.85 163.805 1682.45 167.036C1674.05 170.267 1665.97 173.067 1658.22 175.436C1655.85 176.082 1653.05 176.944 1649.82 178.021C1646.8 179.098 1643.68 180.067 1640.45 180.929C1637.22 181.79 1633.99 182.329 1630.76 182.544C1627.53 182.759 1624.62 182.329 1622.03 181.252C1619.02 179.959 1616.86 177.805 1615.57 174.79C1614.49 171.559 1614.39 168.328 1615.25 165.097C1610.51 165.528 1605.88 166.282 1601.36 167.359C1596.83 168.436 1592.31 169.513 1587.79 170.59C1584.77 171.451 1581.54 172.421 1578.09 173.498C1574.86 174.575 1571.52 175.651 1568.08 176.728C1564.85 177.805 1561.51 178.667 1558.06 179.313C1554.83 179.959 1551.6 180.175 1548.37 179.959C1546.43 179.744 1544.49 179.098 1542.55 178.021C1539.97 176.298 1538.46 174.467 1538.03 172.528C1537.6 170.59 1537.82 168.651 1538.68 166.713C1539.32 164.774 1540.4 162.836 1541.91 160.897C1543.2 158.959 1544.49 157.128 1545.79 155.405C1544.92 152.605 1545.25 149.912 1546.75 147.328C1548.05 144.527 1550.52 143.127 1554.19 143.127Z" fill="#0B2350"/>
</svg>
