<svg width="1782" height="934" viewBox="0 0 1782 934" fill="none" xmlns="http://www.w3.org/2000/svg">
<path fill-rule="evenodd" clip-rule="evenodd" d="M1368.68 0.466254C1368.94 0.720254 1375.42 1.41323 1383.1 2.00623C1419.96 4.85223 1461.47 11.5362 1498.55 20.5952C1579.66 40.4102 1643.64 75.6732 1678.02 119.503C1695.86 142.253 1707.02 167.763 1711.71 196.503C1713.7 208.729 1713.38 242.13 1711.15 254.503C1701.26 309.366 1674.6 358.195 1621.6 418.503C1619.67 420.703 1610.43 430.304 1601.07 439.839C1566.26 475.3 1520.97 512.278 1470.12 546.74C1459.44 553.98 1434.51 570.003 1433.92 570.003C1433.67 570.003 1430.22 572.19 1426.26 574.863C1417.99 580.439 1391.54 595.868 1377.55 603.268C1372.33 606.033 1365.07 610.015 1361.43 612.116C1352.6 617.216 1300.61 642.939 1283.05 650.896C1263.96 659.548 1251.47 665.105 1242.55 668.911C1238.43 670.672 1233.7 672.736 1232.05 673.497C1202.75 687.018 1110.35 721.039 1073.05 732.038C1069.75 733.011 1060.53 735.853 1052.55 738.353C1044.58 740.853 1035.58 743.561 1032.55 744.371C1029.53 745.18 1023.23 746.948 1018.55 748.299C988.684 756.929 939.856 769.355 907.551 776.546C874.373 783.932 815.258 795.287 799.051 797.387C796.851 797.672 788.076 799.027 779.551 800.399C771.026 801.771 759.101 803.612 753.051 804.491C747.001 805.369 740.926 806.273 739.551 806.498C730.257 808.022 691.962 812.632 677.051 814.022C661.871 815.437 656.777 815.925 651.551 816.466C649.076 816.722 643.049 817.214 638.157 817.559C633.265 817.903 628.09 818.326 626.657 818.498C625.224 818.67 617.301 819.105 609.051 819.465C600.801 819.824 592.026 820.292 589.551 820.504C567.564 822.386 471.447 823.153 433.801 821.747C415.789 821.074 382.051 818.756 372.551 817.538C370.626 817.291 364.551 816.598 359.051 815.997C286.779 808.105 216.865 791.08 163.917 768.481C134.541 755.943 115.799 745.201 93.3454 728.033C59.3264 702.022 36.5704 666.951 31.6834 633.003C27.6364 604.891 31.4504 576.56 43.5364 544.946C48.1524 532.874 57.0224 514.003 58.0814 514.003C58.3624 514.003 57.7404 515.691 56.7004 517.753C52.2504 526.576 45.5324 546.411 43.1194 557.855C38.2354 581.018 37.8114 607.853 42.0174 627.651C48.6664 658.953 69.1614 690.707 98.7814 715.601C122.857 735.836 164.523 758.279 202.551 771.495C231.478 781.549 248.978 786.29 287.923 794.62C291.828 795.455 323.984 800.825 328.817 801.448C343.239 803.31 368.336 805.952 377.051 806.527C382.551 806.889 388.131 807.352 389.452 807.556C390.772 807.759 400.447 808.195 410.952 808.524C421.456 808.853 431.085 809.335 432.35 809.594C435.261 810.191 509.672 810.126 519.051 809.518C522.901 809.269 535.951 808.589 548.051 808.008C560.151 807.427 572.526 806.742 575.551 806.486C578.576 806.229 587.126 805.551 594.551 804.978C601.976 804.406 610.076 803.742 612.551 803.503C615.026 803.265 620.201 802.815 624.051 802.505C627.901 802.195 634.426 801.52 638.551 801.005C642.676 800.49 648.076 799.85 650.551 799.582C708.695 793.286 806.991 776.194 852.295 764.502C855.729 763.616 859.329 762.731 860.295 762.536C872.317 760.108 929.151 745.015 960.051 736.044C986.187 728.456 1073.47 699.319 1083.05 694.985C1084.15 694.488 1092.25 691.328 1101.05 687.963C1129.37 677.134 1176.3 657.294 1200.55 645.892C1224.91 634.442 1270.8 611.278 1283.55 603.999C1290.43 600.073 1301 594.33 1307.05 591.236C1313.1 588.142 1320.53 584.202 1323.55 582.481C1326.58 580.76 1333.78 576.733 1339.55 573.533C1355.3 564.809 1371.86 555.203 1409.05 533.229C1450.85 508.531 1514.12 466.237 1512.17 464.291C1511.9 464.022 1509.97 465.115 1507.87 466.719C1497.25 474.835 1493.07 477.854 1492.81 477.594C1492.65 477.436 1493.62 475.326 1494.96 472.905C1499.94 463.897 1514.32 424.007 1517.82 409.503C1518.09 408.403 1520.58 399.628 1523.37 390.003C1542.15 325.059 1543.5 318.828 1543.53 296.446C1543.59 258.159 1531.28 231.817 1504.39 212.694C1488.03 201.052 1460.88 192.22 1435.05 190.134C1429 189.645 1353.74 189.239 1267.81 189.232L1111.57 189.218L1110.51 193.36C1108.75 200.199 1104.55 215.014 1102.1 223.003C1100.83 227.128 1097.9 237.028 1095.58 245.003C1093.27 252.978 1090.32 262.878 1089.04 267.003C1086.16 276.3 1077.01 308.068 1074.5 317.503C1073.48 321.353 1068.32 339.128 1063.03 357.003C1057.75 374.878 1050.07 401.203 1045.96 415.503C1041.86 429.803 1037.65 444.203 1036.62 447.503C1035.58 450.803 1033.51 457.778 1032.01 463.003C1030.52 468.228 1027.36 478.803 1025.01 486.503C1020.56 501.067 1016.14 516.057 1015.28 519.503C1014.82 521.333 1009.23 540.608 1000.15 571.631C998.192 578.301 996.135 584.968 995.573 586.446C995.011 587.924 994.551 589.259 994.551 589.413C994.551 589.566 1059.01 589.65 1137.8 589.598C1216.59 589.546 1286 589.728 1292.05 590.003L1303.05 590.503L1294.05 594.604C1274.86 603.349 1292.81 602.503 1126.38 602.503C1045.17 602.503 978.436 602.221 978.091 601.877C977.541 601.327 986.142 569.252 990.123 557.003C990.927 554.528 993.348 546.428 995.502 539.003C999.479 525.292 1004.61 507.723 1020.62 453.003C1025.53 436.228 1030.72 418.721 1032.16 414.099C1033.6 409.477 1036.92 398.227 1039.54 389.099C1045.97 366.705 1056.06 332.011 1063.55 306.503C1066.94 294.953 1074.4 269.303 1080.13 249.503C1085.85 229.703 1092.14 208.103 1094.1 201.503C1096.06 194.903 1098.56 186.463 1099.65 182.747L1101.64 175.991L1266.35 176.087C1361.19 176.142 1434.66 176.579 1439.55 177.118C1452.29 178.52 1462.77 180.715 1475.55 184.653C1497.9 191.539 1512.03 199.463 1525.1 212.422C1537.87 225.091 1545.95 238.179 1551.38 255.003C1558.76 277.9 1558.62 311.01 1551.01 341.003C1545.49 362.774 1537.08 392.797 1534.5 400.003C1534.01 401.378 1531.83 408.803 1529.67 416.503C1525.9 429.879 1522.54 441.407 1519.09 452.706C1518.22 455.567 1516.28 459.366 1514.78 461.147C1513.28 462.928 1512.26 464.637 1512.52 464.944C1513.53 466.159 1463.38 506.017 1437.55 524.527C1430.68 529.453 1424.83 533.774 1424.55 534.129C1423.92 534.946 1376.93 566.396 1369.55 570.938C1326.24 597.61 1296.26 614.555 1245.22 641.207C1244.21 641.734 1243.57 642.358 1243.81 642.593C1244.22 643.009 1253.96 638.963 1262.05 635.011C1264.25 633.936 1273.25 629.859 1282.05 625.95C1314.44 611.564 1365.7 585.167 1400.05 565.189C1430.77 547.327 1448.74 536.044 1477.55 516.545C1500.04 501.323 1514.09 491.015 1540.65 470.231C1566.74 449.817 1593.19 424.785 1618.6 396.461C1635.18 377.977 1657.13 346.229 1668.69 324.003C1686.73 289.322 1695.55 256.113 1695.55 222.88C1695.55 184.088 1679.5 145.831 1650.9 116.437C1618.36 82.9923 1571.3 57.5412 1510.55 40.5212C1465.29 27.8402 1422.28 21.7422 1359.05 19.0422C1339.86 18.2222 1286.75 18.5023 1270.05 19.5103C1265.65 19.7763 1254.18 20.4602 1244.55 21.0302C1210.53 23.0452 1159.53 28.1462 1129.55 32.5322C1118.18 34.1962 1092.81 38.3763 1077.55 41.0993C1074.53 41.6393 1068 42.7552 1063.05 43.5792C1039.18 47.5552 975.963 60.9912 948.551 67.9132C917.845 75.6672 886.601 84.0092 875.051 87.5372C870.651 88.8822 857.601 92.8643 846.051 96.3883C795.336 111.859 762.903 123.09 718.051 140.71C678.918 156.084 640.551 173.12 640.551 175.121C640.551 175.597 643.589 174.826 647.301 173.407C651.013 171.989 655.851 170.261 658.051 169.566C660.251 168.871 668.126 166.036 675.551 163.265C704.427 152.491 753.339 136.847 802.551 122.645C815.494 118.91 842.035 111.742 847.551 110.492C848.376 110.305 858.276 107.889 869.551 105.122C932.99 89.5543 1005.8 76.4803 1059.55 71.0053C1065.33 70.4173 1071.63 69.7372 1073.55 69.4932C1078.94 68.8112 1111.11 66.2482 1130.05 64.9932C1175.97 61.9482 1243.35 61.7642 1282.55 64.5762C1344.69 69.0332 1391.49 76.0123 1439.55 87.9873C1492.77 101.249 1529.41 116.135 1563.09 138.179C1580.27 149.426 1589.35 156.875 1601.6 169.786C1629.83 199.525 1642.55 228.778 1642.55 263.959C1642.55 287.7 1636.96 309.378 1624.36 334.438C1610.94 361.131 1592.96 385.11 1561.16 418.72C1557.37 422.724 1553.68 426.789 1552.94 427.752C1552.21 428.715 1551.6 429.043 1551.58 428.48C1551.53 426.793 1556.41 408.046 1558.99 400.003C1565.8 378.817 1575.86 340.041 1578.06 326.503C1578.95 321.003 1579.83 309.978 1580.01 302.003C1581.04 256.456 1569.85 224.514 1543.27 197.104C1523.03 176.223 1492.78 162.216 1453.05 155.33C1443.85 153.735 1425.98 153.55 1229.55 153.014C1112.13 152.693 1015.83 152.295 1015.55 152.128C1014.68 151.597 1047.16 145.164 1074.05 140.543C1115.42 133.434 1150.99 128.572 1195.05 124.004C1204.89 122.984 1233.59 120.771 1262.55 118.799C1285.24 117.254 1356.33 117.315 1380.55 118.9C1415.02 121.155 1452.76 125.029 1469.49 128.028C1482.12 130.294 1478.35 128.187 1456.05 120.514C1452.2 119.189 1446.35 117.157 1443.05 115.997C1436.99 113.868 1407.4 105.448 1393.55 101.915C1384.05 99.4902 1354.85 93.5192 1343.05 91.5902C1317.22 87.3632 1288.9 84.3542 1255.3 82.2642C1236.03 81.0672 1157.03 81.4392 1136.05 82.8272C1118.53 83.9852 1091.06 86.2693 1079.05 87.5653C1049.79 90.7243 1007.26 96.5852 992.591 99.4832C991.239 99.7502 986.064 100.66 981.091 101.505C976.119 102.35 969.126 103.698 965.551 104.5C961.976 105.303 953.426 107.11 946.551 108.517C934.081 111.068 919.212 114.451 895.551 120.118C888.676 121.764 879.226 124.026 874.551 125.143C862.129 128.112 811.526 142.371 793.551 147.968C779.45 152.358 776.878 152.848 765.051 153.396C745.714 154.292 725.801 158.754 707.551 166.281C697.02 170.624 675.996 182.139 668.141 187.865C655.282 197.24 636.631 216.605 626.456 231.147C616.997 244.665 617.395 244.289 619.199 238.003C620.067 234.978 621.57 229.578 622.538 226.003C627.444 207.891 628.884 202.741 631.485 194.003C633.04 188.778 635.981 178.653 638.02 171.503C640.059 164.353 642.114 157.266 642.587 155.753L643.447 153.003H551.116H458.784L458.305 155.253C458.042 156.49 456.226 162.903 454.27 169.503C452.314 176.103 447.712 191.628 444.042 204.003C440.372 216.378 435.838 231.903 433.965 238.503C423.647 274.862 426.197 270.161 413.282 276.638C387.552 289.542 333.491 322.608 303.051 344.059C287.673 354.895 251.449 383.154 241.551 392.035C227.465 404.674 221.466 410.381 209.911 422.136C190.381 442.003 183.691 449.922 170.526 468.753C168.123 472.191 165.458 475.042 164.604 475.089C163.75 475.137 159.555 475.295 155.283 475.441C151.01 475.587 147.284 475.936 147.003 476.218C146.722 476.499 143.338 487.253 139.485 500.116C135.631 512.979 129.839 532.278 126.614 543.003C123.388 553.728 117.508 573.528 113.547 587.003C109.586 600.478 105.533 614.203 104.542 617.503C103.55 620.803 103.076 623.861 103.489 624.298C103.902 624.735 166.973 624.935 243.646 624.743C380.971 624.399 383.239 624.362 395.666 622.241C436.432 615.281 469.469 598.932 495.451 572.859C500.835 567.456 507.223 560.263 509.646 556.874C512.069 553.485 515.459 548.82 517.18 546.507C521.059 541.295 530.913 524.626 533.548 518.82L535.507 514.503L535.654 517.753C535.735 519.54 535.881 521.341 535.979 521.753C536.077 522.165 536.517 525.653 536.958 529.503C537.921 537.925 543.309 554.84 547.735 563.336C562.3 591.293 585.829 609.355 621.051 619.616C644.405 626.419 623.61 625.986 929.551 626.039L1207.05 626.088L1201.55 628.421C1129.52 658.982 1063.18 683.203 995.051 703.821C982.401 707.649 971.151 711.002 970.051 711.271C968.951 711.54 961.751 713.586 954.051 715.818C928.698 723.165 872.101 737.495 860.543 739.493C858.622 739.825 855.476 740.495 853.551 740.982C845.351 743.057 836.681 745.014 831.551 745.948C828.526 746.499 821.776 747.862 816.551 748.978C811.326 750.093 805.701 751.253 804.051 751.555C802.401 751.857 797.901 752.72 794.051 753.472C778.411 756.527 764.368 759.021 752.051 760.931C728.839 764.529 713.156 766.864 708.051 767.481C705.301 767.814 700.351 768.507 697.051 769.022C693.751 769.537 682.951 770.877 673.051 772.001C663.151 773.125 653.476 774.237 651.551 774.473C649.626 774.709 644.676 775.178 640.551 775.516C636.426 775.854 632.376 776.296 631.551 776.499C630.726 776.701 624.876 777.172 618.551 777.544C612.226 777.917 606.826 778.354 606.551 778.515C606.276 778.676 599.976 779.131 592.551 779.525C585.126 779.92 578.813 780.379 578.523 780.545C578.232 780.711 569.907 781.165 560.023 781.553C550.138 781.941 541.796 782.402 541.483 782.577C541.171 782.752 524.521 783.202 504.483 783.576C436.03 784.853 358.712 779.715 307.051 770.455C211.753 753.374 146.471 726.022 104.647 685.65C74.9334 656.967 61.1774 625.343 61.0844 585.503C60.9884 544.599 76.1344 504.515 107.551 462.525C138.145 421.634 171.512 389.612 229.518 345.473C258.922 323.099 315.657 287.552 379.551 251.473C401.002 239.361 403.551 237.87 403.551 237.442C403.551 236.95 400.204 238.281 395.051 240.823C392.851 241.908 386.414 244.877 380.747 247.421C359.366 257.018 309.786 282.89 289.551 295.009C287.076 296.491 282.399 299.161 279.158 300.943C261.785 310.491 218.334 338.562 198.259 353.207C158.597 382.142 135.913 400.846 111.2 424.993C96.4644 439.391 72.1794 465.905 64.9374 475.503C62.8614 478.253 60.9014 480.728 60.5804 481.003C59.4854 481.942 48.0174 498.486 42.8924 506.521C16.6854 547.61 1.40538 594.377 0.0993797 637.503C-0.56662 659.481 2.07738 677.36 9.16338 698.792C19.6364 730.467 38.9284 758.912 66.7524 783.703C81.1644 796.543 92.2794 804.856 108.54 814.959C121.658 823.108 152.934 839.497 167.551 845.882C183.622 852.901 226.626 867.297 247.551 872.661C260.164 875.895 286.212 881.857 292.551 882.962C295.576 883.489 303.226 884.844 309.551 885.973C335.374 890.584 372.977 895.114 397.551 896.576C402.776 896.887 408.401 897.371 410.051 897.652C411.701 897.933 435.617 898.408 463.197 898.708C507.609 899.19 546.571 898.349 568.051 896.445C570.801 896.201 582.051 895.313 593.051 894.472C604.051 893.63 616.426 892.525 620.551 892.015C624.676 891.506 630.526 890.813 633.551 890.477C636.576 890.14 644.226 889.209 650.551 888.407C656.876 887.606 664.076 886.721 666.551 886.442C671.004 885.939 680.937 884.484 700.801 881.424C712.583 879.609 711.495 879.79 730.551 876.489C738.526 875.108 746.851 873.529 749.051 872.98C751.251 872.432 756.651 871.294 761.051 870.452C770.271 868.688 781.488 866.286 786.551 864.992C788.476 864.499 791.626 863.826 793.551 863.494C805.588 861.421 858.348 848.086 882.551 840.998C892.176 838.18 900.951 835.612 902.051 835.291C907.042 833.835 902.081 836.065 892.051 839.785C860.988 851.306 852.442 854.332 834.051 860.324C801.487 870.933 792.768 873.635 778.551 877.52C771.126 879.549 762.126 882.034 758.551 883.042C752.522 884.741 718.426 892.54 691.551 898.366C669.815 903.079 637.307 908.745 604.551 913.531C584.027 916.529 537.845 920.609 507.551 922.099C474.885 923.706 403.547 922.292 377.551 919.522C375.076 919.259 367.426 918.581 360.551 918.017C353.676 917.452 346.476 916.776 344.551 916.513C341.364 916.078 341.275 916.129 343.551 917.084C350.576 920.032 413.484 927.994 445.551 929.995C455.176 930.596 465.076 931.264 467.551 931.48C470.026 931.696 491.039 932.433 514.248 933.117C547.745 934.105 565.166 934.108 598.748 933.134C622.014 932.458 644.201 931.696 648.051 931.439C651.901 931.183 665.401 930.287 678.051 929.448C699.565 928.022 729.24 925.519 736.051 924.556C737.701 924.323 742.651 923.857 747.051 923.521C751.451 923.185 755.951 922.727 757.051 922.503C758.151 922.279 761.526 921.837 764.551 921.522C770.246 920.928 781.021 919.54 807.507 915.987C837.557 911.957 879.084 904.884 907.551 898.948C932.026 893.845 942.592 891.688 949.051 890.479C957.86 888.83 982.914 882.857 1003.18 877.575C1008.75 876.123 1014.2 874.764 1015.28 874.555C1017 874.224 1034.67 869.292 1051.55 864.432C1091.94 852.802 1167.34 827.24 1204.55 812.56C1241.25 798.083 1258.5 790.801 1284.05 779.007C1307.94 767.978 1340.7 751.843 1355.05 744.033C1361.1 740.741 1368.75 736.631 1372.05 734.899C1377.03 732.286 1387.71 726.289 1411.05 712.996C1412.7 712.057 1419.9 707.701 1427.05 703.317C1479.55 671.13 1521.51 642.232 1561.05 611.048C1567.92 605.632 1591.57 586.109 1592.55 585.044C1592.83 584.747 1597.1 580.912 1602.05 576.523C1654.77 529.774 1695.65 481.703 1728.78 427.503C1737.39 413.402 1750.07 389.041 1755.06 377.003C1761.66 361.091 1762.91 357.906 1766.5 348.003C1769.83 338.811 1771.43 333.067 1775.56 315.503C1779.52 298.656 1781.06 283.773 1781.03 262.503C1781 242.373 1779.61 232.024 1774 210.322C1759.5 154.249 1722.17 105.905 1667.05 71.8283C1626.93 47.0253 1595.03 33.8522 1539.05 18.9782C1521.74 14.3772 1481.11 7.05522 1461.55 5.00922C1455.78 4.40522 1450.38 3.73924 1449.55 3.52924C1447.9 3.10924 1440.19 2.46922 1419.05 0.996222C1404.86 0.00722182 1367.83 -0.382746 1368.68 0.466254ZM474.352 185.253C464.269 220.608 453.978 256.177 451.134 265.503C449.288 271.553 447.552 277.403 447.274 278.503C446.997 279.603 444.698 287.579 442.165 296.227C435.702 318.301 424.874 355.809 421.879 366.503C420.493 371.453 418.105 379.553 416.573 384.503C415.041 389.453 412.57 397.778 411.082 403.003C409.594 408.228 407.48 415.653 406.383 419.503C398.063 448.711 392.194 461.044 380.937 472.977C370.306 484.246 357.419 491.408 339.072 496.243C331.274 498.298 328.733 498.368 247.856 498.723L164.66 499.089L160.745 511.796C158.592 518.785 155.841 527.878 154.633 532.003C147.628 555.911 137.121 592.175 136.015 596.261L134.728 601.018L257.389 600.924C329.815 600.869 383.327 600.433 388.051 599.86C414.318 596.676 446.687 583.64 464.051 569.252C496.18 542.632 516.615 508.795 530.03 460.003C535.533 439.988 541.303 419.729 544.556 409.003C552.091 384.155 554.93 374.441 562.529 347.503C567.029 331.553 573.321 309.728 576.512 299.003C579.704 288.278 582.538 278.603 582.811 277.503C583.084 276.403 584.976 269.878 587.015 263.003C589.054 256.128 594.312 237.903 598.7 222.503C603.088 207.103 607.774 190.992 609.114 186.701C610.454 182.41 611.551 178.248 611.551 177.451C611.551 176.201 602.343 176.003 544.271 176.003H476.99L474.352 185.253ZM754.551 177.534C709.915 183.76 673.419 206.078 645.857 244.003C638.995 253.445 628.106 272.233 623.782 282.094C620.087 290.519 608.521 327.203 600.479 356.003C598.866 361.778 596.464 370.103 595.141 374.503C592.895 381.973 590.181 391.267 575.922 440.322C559.784 495.841 558.52 502.536 560.482 522.132C564.331 560.559 585.932 584.723 627.812 597.449C645.344 602.776 647.493 602.845 799.267 602.934L939.483 603.017L941.982 594.76C943.357 590.219 945.135 584.028 945.933 581.003C947.99 573.206 954.228 551.288 957.745 539.503C966.087 511.55 968.551 502.887 968.551 501.513C968.551 500.178 953.078 500.008 832.987 500.024C758.428 500.034 697.003 499.782 696.487 499.464C694.272 498.094 695.235 493.834 706.205 456.503C709.76 444.403 715.155 425.953 718.193 415.503C728.592 379.732 735.711 355.502 737.585 349.503C738.615 346.203 741.754 335.906 744.559 326.62C750.445 307.137 754.537 298.371 761.121 291.136C766.732 284.971 777.263 279.417 786.051 277.989C789.71 277.395 839.272 277.012 913.08 277.009L1034.11 277.003L1035.9 269.753C1038.02 261.208 1043.61 241.354 1054.01 205.503C1058.16 191.203 1061.55 178.715 1061.55 177.753C1061.55 176.094 1053.84 176.008 912.801 176.106C795.207 176.188 762.061 176.487 754.551 177.534ZM487.706 190.714C486.804 192.399 483.051 204.343 479.991 215.267C479.257 217.888 476.637 226.888 474.169 235.267C470.015 249.37 464.288 268.967 452.913 308.003C450.429 316.528 447.345 326.878 446.059 331.003C444.774 335.128 441.188 347.503 438.092 358.503C426.458 399.835 423.174 411.044 416.85 431.003C407.453 460.664 402.506 470.223 389.728 483.417C379.126 494.365 366.814 501.616 350.431 506.56C333.176 511.766 328.986 511.991 248.841 511.997L174.631 512.003L173.473 516.253C172.835 518.591 171.485 523.203 170.471 526.503C167.88 534.941 161.017 558.295 156.953 572.503C155.065 579.103 153.272 585.29 152.969 586.253C152.445 587.912 158.127 588.003 262.76 588.003C372.906 588.003 380.758 587.794 397.551 584.423C429.909 577.926 461.741 558.368 480.762 533.297C495.239 514.217 508.948 485.985 514.898 463.003C515.681 459.978 517.457 453.678 518.844 449.003C522.86 435.469 529.687 412.022 539.955 376.503C545.202 358.353 551.551 336.528 554.065 328.003C556.579 319.478 559.697 308.678 560.996 304.003C562.294 299.328 565.706 287.403 568.577 277.503C571.448 267.603 574.149 258.153 574.581 256.503C575.012 254.853 576.554 249.678 578.007 245.003C582.81 229.549 593.551 191.927 593.551 190.556C593.551 189.445 584.343 189.182 541.112 189.058C491.494 188.916 488.62 189.006 487.706 190.714ZM759.051 190.492C740.89 193.098 728.809 196.901 710.469 205.784C682.889 219.143 661.39 240.976 642.593 274.711C635.618 287.232 631.969 297.337 621.546 333.003C617.608 346.478 612.869 362.453 611.015 368.503C607.125 381.195 601.145 401.573 598.544 411.003C597.558 414.578 595.352 422.228 593.642 428.003C591.932 433.778 590.293 439.815 589.999 441.419C589.705 443.023 589.235 444.706 588.954 445.159C588.674 445.613 586.865 451.501 584.934 458.243C574.184 495.776 573.144 501.249 573.863 516.503C575.464 550.437 591.516 570.527 626.938 582.932C646.126 589.651 640.406 589.424 791.718 589.465C866.884 589.486 928.716 589.171 929.122 588.765C929.869 588.018 935.46 569.397 940.159 552.003C942.499 543.34 950.28 516.895 951.192 514.503C951.445 513.84 908.74 513.503 824.312 513.503C702.803 513.503 696.834 513.419 692.247 511.649C688.788 510.315 686.688 508.654 684.747 505.717C681.29 500.486 681.336 494.824 684.941 481.944C690.975 460.386 698.972 432.707 702.549 421.003C704.65 414.128 709.366 398.153 713.03 385.503C716.694 372.853 720.756 358.903 722.056 354.503C723.356 350.103 725.845 341.553 727.588 335.503C733.694 314.307 738.707 300.443 742.776 293.503C748.172 284.3 758.309 274.385 766.559 270.243C779.289 263.85 775.08 264.039 904.822 264.02L1022.59 264.003L1023.48 261.753C1023.97 260.516 1025.07 257.028 1025.93 254.003C1026.79 250.978 1029.71 241.078 1032.42 232.003C1039.61 207.944 1044.35 190.595 1043.93 189.861C1043.73 189.508 981.576 189.215 905.809 189.21C798.493 189.202 766.062 189.485 759.051 190.492ZM1195.1 270.22C1194.12 273.676 1191.16 283.703 1188.52 292.503C1183.49 309.286 1167.84 363.347 1166.53 368.503C1165.2 373.69 1153.89 412.07 1150.76 422.003C1147.74 431.575 1141.81 451.975 1138.54 464.003C1137.57 467.578 1134.32 479.053 1131.32 489.503C1128.31 499.953 1125.58 509.628 1125.25 511.003L1124.64 513.503L1220.35 513.391C1321.65 513.273 1323.12 513.212 1339.94 508.42C1357.83 503.322 1369.75 495.779 1382.34 481.59C1397.87 464.082 1406.89 443.101 1422.56 388.003C1437.39 335.876 1438.54 330.85 1438.54 317.963C1438.56 300.1 1434.71 290.127 1423.94 280.046C1417.17 273.714 1410.93 270.346 1399.47 266.826L1392.05 264.549L1294.47 264.243L1196.89 263.938L1195.1 270.22ZM1204.34 286.219C1202.01 294.682 1189.48 337.773 1184.06 356.003C1182.83 360.128 1176.16 383.303 1169.24 407.503C1162.32 431.703 1155.93 453.528 1155.03 456.003C1152.77 462.279 1142.47 499.252 1142.87 499.655C1143.05 499.837 1182.32 499.999 1230.13 500.014C1326.55 500.045 1327.12 500.013 1343 493.606C1353.95 489.191 1360.5 484.742 1369.17 475.82C1383.1 461.48 1392.1 443.401 1402.04 409.806C1411.48 377.932 1417.06 358.634 1422.82 338.003C1425.85 327.157 1425.8 308.762 1422.73 300.924C1418.66 290.571 1411.35 284.486 1397.18 279.658C1391.17 277.611 1389.29 277.565 1298.98 277.252L1206.9 276.934L1204.34 286.219ZM790.238 301.144C783.546 302.133 778.758 305.507 774.833 312.003C771.395 317.691 770.584 320.155 758.031 363.003C754.889 373.728 750.337 389.253 747.915 397.503C741.027 420.964 740.722 422.014 732.921 448.986C728.868 463.002 725.551 475.039 725.551 475.736C725.551 476.752 751.55 477.003 856.894 477.003H988.238L992.296 464.253C994.528 457.24 998.245 444.978 1000.56 437.003C1002.87 429.028 1007.39 413.503 1010.61 402.503C1013.82 391.503 1019.22 373.053 1022.6 361.503C1025.98 349.953 1031.4 332.045 1034.65 321.707C1037.89 311.37 1040.55 302.316 1040.55 301.588C1040.55 300.497 1019.01 300.279 917.801 300.349C850.288 300.395 792.885 300.753 790.238 301.144ZM1220.23 316.318C1217.64 325.22 1212.1 344.203 1207.92 358.503C1200.58 383.582 1198.21 391.836 1193.73 408.076C1192.58 412.242 1191.21 416.774 1190.69 418.149C1190.16 419.523 1186.27 432.742 1182.04 447.524C1177.8 462.306 1174.11 474.986 1173.84 475.702C1173.03 477.804 1308.98 477.579 1321.17 475.458C1334.76 473.094 1342.32 469.039 1352.94 458.419C1363.4 447.957 1372.59 427.238 1383.08 390.503C1385.6 381.703 1389.62 367.978 1392.03 360.003C1400.04 333.453 1401.87 325.788 1401.96 318.334C1402.09 307.868 1399.25 304.616 1387.13 301.374C1383.04 300.279 1366.73 300.025 1303.49 300.073L1224.93 300.133L1220.23 316.318ZM387.051 377.237C341.329 407.069 318.385 423.38 296.36 441.707C286.307 450.072 261.551 473.844 261.551 475.131C261.551 475.564 276.063 475.796 293.801 475.645C333.661 475.308 338.136 474.44 354.551 463.861C367.67 455.406 374.084 444.741 381.527 419.003C385.164 406.424 394.504 374.836 395.054 373.253C395.293 372.566 395.39 372.006 395.27 372.01C395.149 372.014 391.451 374.367 387.051 377.237Z" fill="white"/>
</svg>
