<svg xmlns="http://www.w3.org/2000/svg" width="2048" height="2048" viewBox="0 0 2048 2048" version="1.1"><path d="M 1495.129 567.463 C 1495.384 567.717, 1501.871 568.410, 1509.546 569.003 C 1546.404 571.849, 1587.916 578.533, 1625 587.592 C 1706.110 607.407, 1770.092 642.670, 1804.464 686.500 C 1822.305 709.250, 1833.467 734.760, 1838.155 763.500 C 1840.149 775.726, 1839.828 809.127, 1837.598 821.500 C 1827.707 876.363, 1801.044 925.192, 1748.047 985.500 C 1746.114 987.700, 1736.875 997.301, 1727.516 1006.836 C 1692.709 1042.297, 1647.414 1079.275, 1596.571 1113.737 C 1585.889 1120.977, 1560.956 1137, 1560.371 1137 C 1560.117 1137, 1556.668 1139.187, 1552.705 1141.860 C 1544.440 1147.436, 1517.985 1162.865, 1504 1170.265 C 1498.775 1173.030, 1491.522 1177.012, 1487.882 1179.113 C 1479.049 1184.213, 1427.057 1209.936, 1409.500 1217.893 C 1390.409 1226.545, 1377.917 1232.102, 1369 1235.908 C 1364.875 1237.669, 1360.150 1239.733, 1358.500 1240.494 C 1329.199 1254.015, 1236.798 1288.036, 1199.500 1299.035 C 1196.200 1300.008, 1186.975 1302.850, 1179 1305.350 C 1171.025 1307.850, 1162.025 1310.558, 1159 1311.368 C 1155.975 1312.177, 1149.675 1313.945, 1145 1315.296 C 1115.133 1323.926, 1066.305 1336.352, 1034 1343.543 C 1000.822 1350.929, 941.707 1362.284, 925.500 1364.384 C 923.300 1364.669, 914.525 1366.024, 906 1367.396 C 897.475 1368.768, 885.550 1370.609, 879.500 1371.488 C 873.450 1372.366, 867.375 1373.270, 866 1373.495 C 856.706 1375.019, 818.411 1379.629, 803.500 1381.019 C 788.320 1382.434, 783.226 1382.922, 778 1383.463 C 775.525 1383.719, 769.498 1384.211, 764.606 1384.556 C 759.714 1384.900, 754.539 1385.323, 753.106 1385.495 C 751.673 1385.667, 743.750 1386.102, 735.500 1386.462 C 727.250 1386.821, 718.475 1387.289, 716 1387.501 C 694.013 1389.383, 597.896 1390.150, 560.250 1388.744 C 542.238 1388.071, 508.500 1385.753, 499 1384.535 C 497.075 1384.288, 491 1383.595, 485.500 1382.994 C 413.228 1375.102, 343.314 1358.077, 290.366 1335.478 C 260.990 1322.940, 242.248 1312.198, 219.794 1295.030 C 185.775 1269.019, 163.019 1233.948, 158.132 1200 C 154.085 1171.888, 157.899 1143.557, 169.985 1111.943 C 174.601 1099.871, 183.471 1081, 184.530 1081 C 184.811 1081, 184.189 1082.688, 183.149 1084.750 C 178.699 1093.573, 171.981 1113.408, 169.568 1124.852 C 164.684 1148.015, 164.260 1174.850, 168.466 1194.648 C 175.115 1225.950, 195.610 1257.704, 225.230 1282.598 C 249.306 1302.833, 290.972 1325.276, 329 1338.492 C 357.927 1348.546, 375.427 1353.287, 414.372 1361.617 C 418.277 1362.452, 450.433 1367.822, 455.266 1368.445 C 469.688 1370.307, 494.785 1372.949, 503.500 1373.524 C 509 1373.886, 514.580 1374.349, 515.901 1374.553 C 517.221 1374.756, 526.896 1375.192, 537.401 1375.521 C 547.905 1375.850, 557.534 1376.332, 558.799 1376.591 C 561.710 1377.188, 636.121 1377.123, 645.500 1376.515 C 649.350 1376.266, 662.400 1375.586, 674.500 1375.005 C 686.600 1374.424, 698.975 1373.739, 702 1373.483 C 705.025 1373.226, 713.575 1372.548, 721 1371.975 C 728.425 1371.403, 736.525 1370.739, 739 1370.500 C 741.475 1370.262, 746.650 1369.812, 750.500 1369.502 C 754.350 1369.192, 760.875 1368.517, 765 1368.002 C 769.125 1367.487, 774.525 1366.847, 777 1366.579 C 835.144 1360.283, 933.440 1343.191, 978.744 1331.499 C 982.178 1330.613, 985.778 1329.728, 986.744 1329.533 C 998.766 1327.105, 1055.600 1312.012, 1086.500 1303.041 C 1112.636 1295.453, 1199.922 1266.316, 1209.500 1261.982 C 1210.600 1261.485, 1218.700 1258.325, 1227.500 1254.960 C 1255.821 1244.131, 1302.744 1224.291, 1327 1212.889 C 1351.356 1201.439, 1397.251 1178.275, 1410 1170.996 C 1416.875 1167.070, 1427.450 1161.327, 1433.500 1158.233 C 1439.550 1155.139, 1446.975 1151.199, 1450 1149.478 C 1453.025 1147.757, 1460.225 1143.730, 1466 1140.530 C 1481.745 1131.806, 1498.308 1122.200, 1535.500 1100.226 C 1577.300 1075.528, 1640.567 1033.234, 1638.621 1031.288 C 1638.352 1031.019, 1636.415 1032.112, 1634.316 1033.716 C 1623.697 1041.832, 1619.517 1044.851, 1619.257 1044.591 C 1619.100 1044.433, 1620.066 1042.323, 1621.405 1039.902 C 1626.385 1030.894, 1640.772 991.004, 1644.272 976.500 C 1644.537 975.400, 1647.032 966.625, 1649.817 957 C 1668.603 892.056, 1669.946 885.825, 1669.980 863.443 C 1670.038 825.156, 1657.728 798.814, 1630.842 779.691 C 1614.474 768.049, 1587.326 759.217, 1561.500 757.131 C 1555.450 756.642, 1480.192 756.236, 1394.260 756.229 L 1238.019 756.215 1236.957 760.357 C 1235.202 767.196, 1231 782.011, 1228.548 790 C 1227.282 794.125, 1224.350 804.025, 1222.033 812 C 1219.716 819.975, 1216.773 829.875, 1215.493 834 C 1212.608 843.297, 1203.461 875.065, 1200.952 884.500 C 1199.929 888.350, 1194.767 906.125, 1189.481 924 C 1184.196 941.875, 1176.514 968.200, 1172.409 982.500 C 1168.305 996.800, 1164.099 1011.200, 1163.065 1014.500 C 1162.030 1017.800, 1159.958 1024.775, 1158.461 1030 C 1156.964 1035.225, 1153.813 1045.800, 1151.460 1053.500 C 1147.008 1068.064, 1142.588 1083.054, 1141.729 1086.500 C 1141.273 1088.330, 1135.677 1107.605, 1126.594 1138.628 C 1124.641 1145.298, 1122.584 1151.965, 1122.022 1153.443 C 1121.460 1154.921, 1121 1156.256, 1121 1156.410 C 1121 1156.563, 1185.463 1156.647, 1264.250 1156.595 C 1343.037 1156.543, 1412.450 1156.725, 1418.500 1157 L 1429.500 1157.500 1420.500 1161.601 C 1401.306 1170.346, 1419.258 1169.500, 1252.833 1169.500 C 1171.617 1169.500, 1104.885 1169.218, 1104.540 1168.874 C 1103.990 1168.324, 1112.591 1136.249, 1116.572 1124 C 1117.376 1121.525, 1119.797 1113.425, 1121.951 1106 C 1125.928 1092.289, 1131.060 1074.720, 1147.067 1020 C 1151.975 1003.225, 1157.168 985.718, 1158.607 981.096 C 1160.047 976.474, 1163.369 965.224, 1165.990 956.096 C 1172.420 933.702, 1182.504 899.008, 1189.998 873.500 C 1193.391 861.950, 1200.850 836.300, 1206.574 816.500 C 1212.297 796.700, 1218.586 775.100, 1220.548 768.500 C 1222.511 761.900, 1225.010 753.460, 1226.102 749.744 L 1228.088 742.988 1392.794 743.084 C 1487.637 743.139, 1561.105 743.576, 1566 744.115 C 1578.736 745.517, 1589.219 747.712, 1602 751.650 C 1624.344 758.536, 1638.482 766.460, 1651.547 779.419 C 1664.320 792.088, 1672.396 805.176, 1677.824 822 C 1685.212 844.897, 1685.071 878.007, 1677.460 908 C 1671.935 929.771, 1663.533 959.794, 1660.948 967 C 1660.455 968.375, 1658.280 975.800, 1656.115 983.500 C 1652.353 996.876, 1648.985 1008.404, 1645.538 1019.703 C 1644.665 1022.564, 1642.724 1026.363, 1641.225 1028.144 C 1639.726 1029.925, 1638.710 1031.634, 1638.966 1031.941 C 1639.979 1033.156, 1589.830 1073.014, 1564 1091.524 C 1557.125 1096.450, 1551.275 1100.771, 1551 1101.126 C 1550.367 1101.943, 1503.374 1133.393, 1496 1137.935 C 1452.692 1164.607, 1422.709 1181.552, 1371.664 1208.204 C 1370.655 1208.731, 1370.021 1209.355, 1370.257 1209.590 C 1370.672 1210.006, 1380.408 1205.960, 1388.500 1202.008 C 1390.700 1200.933, 1399.700 1196.856, 1408.500 1192.947 C 1440.885 1178.561, 1492.149 1152.164, 1526.500 1132.186 C 1557.214 1114.324, 1575.190 1103.041, 1604 1083.542 C 1626.492 1068.320, 1640.535 1058.012, 1667.099 1037.228 C 1693.190 1016.814, 1719.640 991.782, 1745.051 963.458 C 1761.632 944.974, 1783.580 913.226, 1795.141 891 C 1813.179 856.319, 1822 823.110, 1822 789.877 C 1822 751.085, 1805.952 712.828, 1777.349 683.434 C 1744.804 649.989, 1697.751 624.538, 1637 607.518 C 1591.737 594.837, 1548.726 588.739, 1485.500 586.039 C 1466.309 585.219, 1413.197 585.499, 1396.500 586.507 C 1392.100 586.773, 1380.625 587.457, 1371 588.027 C 1336.983 590.042, 1285.978 595.143, 1256 599.529 C 1244.629 601.193, 1219.254 605.373, 1204 608.096 C 1200.975 608.636, 1194.450 609.752, 1189.500 610.576 C 1165.632 614.552, 1102.412 627.988, 1075 634.910 C 1044.294 642.664, 1013.050 651.006, 1001.500 654.534 C 997.100 655.879, 984.050 659.861, 972.500 663.385 C 921.785 678.856, 889.352 690.087, 844.500 707.707 C 805.367 723.081, 767 740.117, 767 742.118 C 767 742.594, 770.038 741.823, 773.750 740.404 C 777.462 738.986, 782.300 737.258, 784.500 736.563 C 786.700 735.868, 794.575 733.033, 802 730.262 C 830.876 719.488, 879.788 703.844, 929 689.642 C 941.943 685.907, 968.484 678.739, 974 677.489 C 974.825 677.302, 984.725 674.886, 996 672.119 C 1059.439 656.551, 1132.251 643.477, 1186 638.002 C 1191.775 637.414, 1198.075 636.734, 1200 636.490 C 1205.391 635.808, 1237.559 633.245, 1256.500 631.990 C 1302.416 628.945, 1369.800 628.761, 1409 631.573 C 1471.137 636.030, 1517.938 643.009, 1566 654.984 C 1619.223 668.246, 1655.863 683.132, 1689.539 705.176 C 1706.722 716.423, 1715.798 723.872, 1728.053 736.783 C 1756.281 766.522, 1769 795.775, 1769 830.956 C 1769 854.697, 1763.404 876.375, 1750.807 901.435 C 1737.390 928.128, 1719.409 952.107, 1687.611 985.717 C 1683.822 989.721, 1680.124 993.786, 1679.393 994.749 C 1678.662 995.712, 1678.049 996.040, 1678.032 995.477 C 1677.979 993.790, 1682.858 975.043, 1685.443 967 C 1692.250 945.814, 1702.308 907.038, 1704.508 893.500 C 1705.401 888, 1706.279 876.975, 1706.459 869 C 1707.484 823.453, 1696.297 791.511, 1669.721 764.101 C 1649.476 743.220, 1619.224 729.213, 1579.500 722.327 C 1570.299 720.732, 1552.432 720.547, 1356 720.011 C 1238.575 719.690, 1142.275 719.292, 1142 719.125 C 1141.124 718.594, 1173.606 712.161, 1200.500 707.540 C 1241.866 700.431, 1277.436 695.569, 1321.500 691.001 C 1331.342 689.981, 1360.039 687.768, 1389 685.796 C 1411.687 684.251, 1482.776 684.312, 1507 685.897 C 1541.469 688.152, 1579.211 692.026, 1595.934 695.025 C 1608.567 697.291, 1604.799 695.184, 1582.500 687.511 C 1578.650 686.186, 1572.800 684.154, 1569.500 682.994 C 1563.442 680.865, 1533.845 672.445, 1520 668.912 C 1510.500 666.487, 1481.296 660.516, 1469.500 658.587 C 1443.664 654.360, 1415.345 651.351, 1381.746 649.261 C 1362.482 648.064, 1283.480 648.436, 1262.500 649.824 C 1244.983 650.982, 1217.506 653.266, 1205.500 654.562 C 1176.234 657.721, 1133.711 663.582, 1119.040 666.480 C 1117.688 666.747, 1112.513 667.657, 1107.540 668.502 C 1102.568 669.347, 1095.575 670.695, 1092 671.497 C 1088.425 672.300, 1079.875 674.107, 1073 675.514 C 1060.530 678.065, 1045.661 681.448, 1022 687.115 C 1015.125 688.761, 1005.675 691.023, 1001 692.140 C 988.578 695.109, 937.975 709.368, 920 714.965 C 905.899 719.355, 903.327 719.845, 891.500 720.393 C 872.163 721.289, 852.250 725.751, 834 733.278 C 823.469 737.621, 802.445 749.136, 794.590 754.862 C 781.731 764.237, 763.080 783.602, 752.905 798.144 C 743.446 811.662, 743.844 811.286, 745.648 805 C 746.516 801.975, 748.019 796.575, 748.987 793 C 753.893 774.888, 755.333 769.738, 757.934 761 C 759.489 755.775, 762.430 745.650, 764.469 738.500 C 766.508 731.350, 768.563 724.263, 769.036 722.750 L 769.896 720 677.565 720 L 585.233 720 584.754 722.250 C 584.491 723.487, 582.675 729.900, 580.719 736.500 C 578.763 743.100, 574.161 758.625, 570.491 771 C 566.821 783.375, 562.287 798.900, 560.414 805.500 C 550.096 841.859, 552.646 837.158, 539.731 843.635 C 514.001 856.539, 459.940 889.605, 429.500 911.056 C 414.122 921.892, 377.898 950.151, 368 959.032 C 353.914 971.671, 347.915 977.378, 336.360 989.133 C 316.830 1009, 310.140 1016.919, 296.975 1035.750 C 294.572 1039.188, 291.907 1042.039, 291.053 1042.086 C 290.199 1042.134, 286.004 1042.292, 281.732 1042.438 C 277.459 1042.584, 273.733 1042.933, 273.452 1043.215 C 273.171 1043.496, 269.787 1054.250, 265.934 1067.113 C 262.080 1079.976, 256.288 1099.275, 253.063 1110 C 249.837 1120.725, 243.957 1140.525, 239.996 1154 C 236.035 1167.475, 231.982 1181.200, 230.991 1184.500 C 229.999 1187.800, 229.525 1190.858, 229.938 1191.295 C 230.351 1191.732, 293.422 1191.932, 370.095 1191.740 C 507.420 1191.396, 509.688 1191.359, 522.115 1189.238 C 562.881 1182.278, 595.918 1165.929, 621.900 1139.856 C 627.284 1134.453, 633.672 1127.260, 636.095 1123.871 C 638.518 1120.482, 641.908 1115.817, 643.629 1113.504 C 647.508 1108.292, 657.362 1091.623, 659.997 1085.817 L 661.956 1081.500 662.103 1084.750 C 662.184 1086.537, 662.330 1088.338, 662.428 1088.750 C 662.526 1089.162, 662.966 1092.650, 663.407 1096.500 C 664.370 1104.922, 669.758 1121.837, 674.184 1130.333 C 688.749 1158.290, 712.278 1176.352, 747.500 1186.613 C 770.854 1193.416, 750.059 1192.983, 1056 1193.036 L 1333.500 1193.085 1328 1195.418 C 1255.967 1225.979, 1189.632 1250.200, 1121.500 1270.818 C 1108.850 1274.646, 1097.600 1277.999, 1096.500 1278.268 C 1095.400 1278.537, 1088.200 1280.583, 1080.500 1282.815 C 1055.147 1290.162, 998.550 1304.492, 986.992 1306.490 C 985.071 1306.822, 981.925 1307.492, 980 1307.979 C 971.800 1310.054, 963.130 1312.011, 958 1312.945 C 954.975 1313.496, 948.225 1314.859, 943 1315.975 C 937.775 1317.090, 932.150 1318.250, 930.500 1318.552 C 928.850 1318.854, 924.350 1319.717, 920.500 1320.469 C 904.860 1323.524, 890.817 1326.018, 878.500 1327.928 C 855.288 1331.526, 839.605 1333.861, 834.500 1334.478 C 831.750 1334.811, 826.800 1335.504, 823.500 1336.019 C 820.200 1336.534, 809.400 1337.874, 799.500 1338.998 C 789.600 1340.122, 779.925 1341.234, 778 1341.470 C 776.075 1341.706, 771.125 1342.175, 767 1342.513 C 762.875 1342.851, 758.825 1343.293, 758 1343.496 C 757.175 1343.698, 751.325 1344.169, 745 1344.541 C 738.675 1344.914, 733.275 1345.351, 733 1345.512 C 732.725 1345.673, 726.425 1346.128, 719 1346.522 C 711.575 1346.917, 705.262 1347.376, 704.972 1347.542 C 704.681 1347.708, 696.356 1348.162, 686.472 1348.550 C 676.587 1348.938, 668.245 1349.399, 667.932 1349.574 C 667.620 1349.749, 650.970 1350.199, 630.932 1350.573 C 562.479 1351.850, 485.161 1346.712, 433.500 1337.452 C 338.202 1320.371, 272.920 1293.019, 231.096 1252.647 C 201.382 1223.964, 187.626 1192.340, 187.533 1152.500 C 187.437 1111.596, 202.583 1071.512, 234 1029.522 C 264.594 988.631, 297.961 956.609, 355.967 912.470 C 385.371 890.096, 442.106 854.549, 506 818.470 C 527.451 806.358, 530 804.867, 530 804.439 C 530 803.947, 526.653 805.278, 521.500 807.820 C 519.300 808.905, 512.863 811.874, 507.196 814.418 C 485.815 824.015, 436.235 849.887, 416 862.006 C 413.525 863.488, 408.848 866.158, 405.607 867.940 C 388.234 877.488, 344.783 905.559, 324.708 920.204 C 285.046 949.139, 262.362 967.843, 237.649 991.990 C 222.913 1006.388, 198.628 1032.902, 191.386 1042.500 C 189.310 1045.250, 187.350 1047.725, 187.029 1048 C 185.934 1048.939, 174.466 1065.483, 169.341 1073.518 C 143.134 1114.607, 127.854 1161.374, 126.548 1204.500 C 125.882 1226.478, 128.526 1244.357, 135.612 1265.789 C 146.085 1297.464, 165.377 1325.909, 193.201 1350.700 C 207.613 1363.540, 218.728 1371.853, 234.989 1381.956 C 248.107 1390.105, 279.383 1406.494, 294 1412.879 C 310.071 1419.898, 353.075 1434.294, 374 1439.658 C 386.613 1442.892, 412.661 1448.854, 419 1449.959 C 422.025 1450.486, 429.675 1451.841, 436 1452.970 C 461.823 1457.581, 499.426 1462.111, 524 1463.573 C 529.225 1463.884, 534.850 1464.368, 536.500 1464.649 C 538.150 1464.930, 562.066 1465.405, 589.646 1465.705 C 634.058 1466.187, 673.020 1465.346, 694.500 1463.442 C 697.250 1463.198, 708.500 1462.310, 719.500 1461.469 C 730.500 1460.627, 742.875 1459.522, 747 1459.012 C 751.125 1458.503, 756.975 1457.810, 760 1457.474 C 763.025 1457.137, 770.675 1456.206, 777 1455.404 C 783.325 1454.603, 790.525 1453.718, 793 1453.439 C 797.453 1452.936, 807.386 1451.481, 827.250 1448.421 C 839.032 1446.606, 837.944 1446.787, 857 1443.486 C 864.975 1442.105, 873.300 1440.526, 875.500 1439.977 C 877.700 1439.429, 883.100 1438.291, 887.500 1437.449 C 896.720 1435.685, 907.937 1433.283, 913 1431.989 C 914.925 1431.496, 918.075 1430.823, 920 1430.491 C 932.037 1428.418, 984.797 1415.083, 1009 1407.995 C 1018.625 1405.177, 1027.400 1402.609, 1028.500 1402.288 C 1033.491 1400.832, 1028.530 1403.062, 1018.500 1406.782 C 987.437 1418.303, 978.891 1421.329, 960.500 1427.321 C 927.936 1437.930, 919.217 1440.632, 905 1444.517 C 897.575 1446.546, 888.575 1449.031, 885 1450.039 C 878.971 1451.738, 844.875 1459.537, 818 1465.363 C 796.264 1470.076, 763.756 1475.742, 731 1480.528 C 710.476 1483.526, 664.294 1487.606, 634 1489.096 C 601.334 1490.703, 529.996 1489.289, 504 1486.519 C 501.525 1486.256, 493.875 1485.578, 487 1485.014 C 480.125 1484.449, 472.925 1483.773, 471 1483.510 C 467.813 1483.075, 467.724 1483.126, 470 1484.081 C 477.025 1487.029, 539.933 1494.991, 572 1496.992 C 581.625 1497.593, 591.525 1498.261, 594 1498.477 C 596.475 1498.693, 617.488 1499.430, 640.697 1500.114 C 674.194 1501.102, 691.615 1501.105, 725.197 1500.131 C 748.463 1499.455, 770.650 1498.693, 774.500 1498.436 C 778.350 1498.180, 791.850 1497.284, 804.500 1496.445 C 826.014 1495.019, 855.689 1492.516, 862.500 1491.553 C 864.150 1491.320, 869.100 1490.854, 873.500 1490.518 C 877.900 1490.182, 882.400 1489.724, 883.500 1489.500 C 884.600 1489.276, 887.975 1488.834, 891 1488.519 C 896.695 1487.925, 907.470 1486.537, 933.956 1482.984 C 964.006 1478.954, 1005.533 1471.881, 1034 1465.945 C 1058.475 1460.842, 1069.041 1458.685, 1075.500 1457.476 C 1084.309 1455.827, 1109.363 1449.854, 1129.629 1444.572 C 1135.199 1443.120, 1140.644 1441.761, 1141.728 1441.552 C 1143.447 1441.221, 1161.120 1436.289, 1178 1431.429 C 1218.392 1419.799, 1293.790 1394.237, 1331 1379.557 C 1367.699 1365.080, 1384.950 1357.798, 1410.500 1346.004 C 1434.391 1334.975, 1467.146 1318.840, 1481.500 1311.030 C 1487.550 1307.738, 1495.200 1303.628, 1498.500 1301.896 C 1503.480 1299.283, 1514.158 1293.286, 1537.500 1279.993 C 1539.150 1279.054, 1546.350 1274.698, 1553.500 1270.314 C 1605.994 1238.127, 1647.962 1209.229, 1687.500 1178.045 C 1694.367 1172.629, 1718.017 1153.106, 1719 1152.041 C 1719.275 1151.744, 1723.550 1147.909, 1728.500 1143.520 C 1781.222 1096.771, 1822.102 1048.700, 1855.226 994.500 C 1863.843 980.399, 1876.523 956.038, 1881.511 944 C 1888.104 928.088, 1889.360 924.903, 1892.949 915 C 1896.279 905.808, 1897.880 900.064, 1902.009 882.500 C 1905.969 865.653, 1907.504 850.770, 1907.476 829.500 C 1907.450 809.370, 1906.056 799.021, 1900.446 777.319 C 1885.952 721.246, 1848.621 672.902, 1793.500 638.825 C 1753.380 614.022, 1721.477 600.849, 1665.500 585.975 C 1648.184 581.374, 1607.563 574.052, 1588 572.006 C 1582.225 571.402, 1576.825 570.736, 1576 570.526 C 1574.346 570.106, 1566.639 569.466, 1545.500 567.993 C 1531.304 567.004, 1494.281 566.614, 1495.129 567.463 M 600.801 752.250 C 590.718 787.605, 580.427 823.174, 577.583 832.500 C 575.737 838.550, 574.001 844.400, 573.723 845.500 C 573.446 846.600, 571.147 854.576, 568.614 863.224 C 562.151 885.298, 551.323 922.806, 548.328 933.500 C 546.942 938.450, 544.554 946.550, 543.022 951.500 C 541.490 956.450, 539.019 964.775, 537.531 970 C 536.043 975.225, 533.929 982.650, 532.832 986.500 C 524.512 1015.708, 518.643 1028.041, 507.386 1039.974 C 496.755 1051.243, 483.868 1058.405, 465.521 1063.240 C 457.723 1065.295, 455.182 1065.365, 374.305 1065.720 L 291.109 1066.086 287.194 1078.793 C 285.041 1085.782, 282.290 1094.875, 281.082 1099 C 274.077 1122.908, 263.570 1159.172, 262.464 1163.258 L 261.177 1168.015 383.838 1167.921 C 456.264 1167.866, 509.776 1167.430, 514.500 1166.857 C 540.767 1163.673, 573.136 1150.637, 590.500 1136.249 C 622.629 1109.629, 643.064 1075.792, 656.479 1027 C 661.982 1006.985, 667.752 986.726, 671.005 976 C 678.540 951.152, 681.379 941.438, 688.978 914.500 C 693.478 898.550, 699.770 876.725, 702.961 866 C 706.153 855.275, 708.987 845.600, 709.260 844.500 C 709.533 843.400, 711.425 836.875, 713.464 830 C 715.503 823.125, 720.761 804.900, 725.149 789.500 C 729.537 774.100, 734.223 757.989, 735.563 753.698 C 736.903 749.407, 738 745.245, 738 744.448 C 738 743.198, 728.792 743, 670.720 743 L 603.439 743 600.801 752.250 M 881 744.531 C 836.364 750.757, 799.868 773.075, 772.306 811 C 765.444 820.442, 754.555 839.230, 750.231 849.091 C 746.536 857.516, 734.970 894.200, 726.928 923 C 725.315 928.775, 722.913 937.100, 721.590 941.500 C 719.344 948.970, 716.630 958.264, 702.371 1007.319 C 686.233 1062.838, 684.969 1069.533, 686.931 1089.129 C 690.780 1127.556, 712.381 1151.720, 754.261 1164.446 C 771.793 1169.773, 773.942 1169.842, 925.716 1169.931 L 1065.932 1170.014 1068.431 1161.757 C 1069.806 1157.216, 1071.584 1151.025, 1072.382 1148 C 1074.439 1140.203, 1080.677 1118.285, 1084.194 1106.500 C 1092.536 1078.547, 1095 1069.884, 1095 1068.510 C 1095 1067.175, 1079.527 1067.005, 959.436 1067.021 C 884.877 1067.031, 823.452 1066.779, 822.936 1066.461 C 820.721 1065.091, 821.684 1060.831, 832.654 1023.500 C 836.209 1011.400, 841.604 992.950, 844.642 982.500 C 855.041 946.729, 862.160 922.499, 864.034 916.500 C 865.064 913.200, 868.203 902.903, 871.008 893.617 C 876.894 874.134, 880.986 865.368, 887.570 858.133 C 893.181 851.968, 903.712 846.414, 912.500 844.986 C 916.159 844.392, 965.721 844.009, 1039.529 844.006 L 1160.557 844 1162.351 836.750 C 1164.465 828.205, 1170.060 808.351, 1180.459 772.500 C 1184.607 758.200, 1188 745.712, 1188 744.750 C 1188 743.091, 1180.289 743.005, 1039.250 743.103 C 921.656 743.185, 888.510 743.484, 881 744.531 M 614.155 757.711 C 613.253 759.396, 609.500 771.340, 606.440 782.264 C 605.706 784.885, 603.086 793.885, 600.618 802.264 C 596.464 816.367, 590.737 835.964, 579.362 875 C 576.878 883.525, 573.794 893.875, 572.508 898 C 571.223 902.125, 567.637 914.500, 564.541 925.500 C 552.907 966.832, 549.623 978.041, 543.299 998 C 533.902 1027.661, 528.955 1037.220, 516.177 1050.414 C 505.575 1061.362, 493.263 1068.613, 476.880 1073.557 C 459.625 1078.763, 455.435 1078.988, 375.290 1078.994 L 301.080 1079 299.922 1083.250 C 299.284 1085.588, 297.934 1090.200, 296.920 1093.500 C 294.329 1101.938, 287.466 1125.292, 283.402 1139.500 C 281.514 1146.100, 279.721 1152.287, 279.418 1153.250 C 278.894 1154.909, 284.576 1155, 389.209 1155 C 499.355 1155, 507.207 1154.791, 524 1151.420 C 556.358 1144.923, 588.190 1125.365, 607.211 1100.294 C 621.688 1081.214, 635.397 1052.982, 641.347 1030 C 642.130 1026.975, 643.906 1020.675, 645.293 1016 C 649.309 1002.466, 656.136 979.019, 666.404 943.500 C 671.651 925.350, 678 903.525, 680.514 895 C 683.028 886.475, 686.146 875.675, 687.445 871 C 688.743 866.325, 692.155 854.400, 695.026 844.500 C 697.897 834.600, 700.598 825.150, 701.030 823.500 C 701.461 821.850, 703.003 816.675, 704.456 812 C 709.259 796.546, 720 758.924, 720 757.553 C 720 756.442, 710.792 756.179, 667.561 756.055 C 617.943 755.913, 615.069 756.003, 614.155 757.711 M 885.500 757.489 C 867.339 760.095, 855.258 763.898, 836.918 772.781 C 809.338 786.140, 787.839 807.973, 769.042 841.708 C 762.067 854.229, 758.418 864.334, 747.995 900 C 744.057 913.475, 739.318 929.450, 737.464 935.500 C 733.574 948.192, 727.594 968.570, 724.993 978 C 724.007 981.575, 721.801 989.225, 720.091 995 C 718.381 1000.775, 716.742 1006.812, 716.448 1008.416 C 716.154 1010.020, 715.684 1011.703, 715.403 1012.156 C 715.123 1012.610, 713.314 1018.498, 711.383 1025.240 C 700.633 1062.773, 699.593 1068.246, 700.312 1083.500 C 701.913 1117.434, 717.965 1137.524, 753.387 1149.929 C 772.575 1156.648, 766.855 1156.421, 918.167 1156.462 C 993.333 1156.483, 1055.165 1156.168, 1055.571 1155.762 C 1056.318 1155.015, 1061.909 1136.394, 1066.608 1119 C 1068.948 1110.337, 1076.729 1083.892, 1077.641 1081.500 C 1077.894 1080.837, 1035.189 1080.500, 950.761 1080.500 C 829.252 1080.500, 823.283 1080.416, 818.696 1078.646 C 815.237 1077.312, 813.137 1075.651, 811.196 1072.714 C 807.739 1067.483, 807.785 1061.821, 811.390 1048.941 C 817.424 1027.383, 825.421 999.704, 828.998 988 C 831.099 981.125, 835.815 965.150, 839.479 952.500 C 843.143 939.850, 847.205 925.900, 848.505 921.500 C 849.805 917.100, 852.294 908.550, 854.037 902.500 C 860.143 881.304, 865.156 867.440, 869.225 860.500 C 874.621 851.297, 884.758 841.382, 893.008 837.240 C 905.738 830.847, 901.529 831.036, 1031.271 831.017 L 1149.043 831 1149.931 828.750 C 1150.419 827.513, 1151.521 824.025, 1152.379 821 C 1153.237 817.975, 1156.158 808.075, 1158.870 799 C 1166.059 774.941, 1170.797 757.592, 1170.381 756.858 C 1170.180 756.505, 1108.025 756.212, 1032.258 756.207 C 924.942 756.199, 892.511 756.482, 885.500 757.489 M 1321.551 837.217 C 1320.569 840.673, 1317.607 850.700, 1314.969 859.500 C 1309.938 876.283, 1294.293 930.344, 1292.975 935.500 C 1291.649 940.687, 1280.337 979.067, 1277.206 989 C 1274.189 998.572, 1268.256 1018.972, 1264.992 1031 C 1264.022 1034.575, 1260.770 1046.050, 1257.765 1056.500 C 1254.761 1066.950, 1252.029 1076.625, 1251.695 1078 L 1251.088 1080.500 1346.794 1080.388 C 1448.101 1080.270, 1449.572 1080.209, 1466.391 1075.417 C 1484.281 1070.319, 1496.201 1062.776, 1508.787 1048.587 C 1524.317 1031.079, 1533.334 1010.098, 1549.008 955 C 1563.837 902.873, 1564.984 897.847, 1564.993 884.960 C 1565.005 867.097, 1561.163 857.124, 1550.386 847.043 C 1543.618 840.711, 1537.383 837.343, 1525.917 833.823 L 1518.500 831.546 1420.918 831.240 L 1323.336 830.935 1321.551 837.217 M 1330.791 853.216 C 1328.459 861.679, 1315.933 904.770, 1310.505 923 C 1309.276 927.125, 1302.609 950.300, 1295.689 974.500 C 1288.769 998.700, 1282.376 1020.525, 1281.483 1023 C 1279.218 1029.276, 1268.915 1066.249, 1269.319 1066.652 C 1269.501 1066.834, 1308.769 1066.996, 1356.582 1067.011 C 1452.997 1067.042, 1453.565 1067.010, 1469.452 1060.603 C 1480.403 1056.188, 1486.946 1051.739, 1495.614 1042.817 C 1509.545 1028.477, 1518.550 1010.398, 1528.493 976.803 C 1537.926 944.929, 1543.510 925.631, 1549.270 905 C 1552.298 894.154, 1552.250 875.759, 1549.174 867.921 C 1545.111 857.568, 1537.801 851.483, 1523.629 846.655 C 1517.617 844.608, 1515.736 844.562, 1425.425 844.249 L 1333.349 843.931 1330.791 853.216 M 916.687 868.141 C 909.995 869.130, 905.207 872.504, 901.282 879 C 897.844 884.688, 897.033 887.152, 884.480 930 C 881.338 940.725, 876.786 956.250, 874.364 964.500 C 867.476 987.961, 867.171 989.011, 859.370 1015.983 C 855.317 1029.999, 852 1042.036, 852 1042.733 C 852 1043.749, 877.999 1044, 983.343 1044 L 1114.687 1044 1118.745 1031.250 C 1120.977 1024.237, 1124.694 1011.975, 1127.004 1004 C 1129.315 996.025, 1133.837 980.500, 1137.054 969.500 C 1140.272 958.500, 1145.668 940.050, 1149.046 928.500 C 1152.424 916.950, 1157.846 899.042, 1161.094 888.704 C 1164.342 878.367, 1167 869.313, 1167 868.585 C 1167 867.494, 1145.459 867.276, 1044.250 867.346 C 976.737 867.392, 919.334 867.750, 916.687 868.141 M 1346.677 883.315 C 1344.093 892.217, 1338.553 911.200, 1334.366 925.500 C 1327.024 950.579, 1324.662 958.833, 1320.176 975.073 C 1319.026 979.239, 1317.657 983.771, 1317.135 985.146 C 1316.612 986.520, 1312.720 999.739, 1308.485 1014.521 C 1304.250 1029.303, 1300.560 1041.983, 1300.285 1042.699 C 1299.479 1044.801, 1435.430 1044.576, 1447.619 1042.455 C 1461.204 1040.091, 1468.764 1036.036, 1479.384 1025.416 C 1489.846 1014.954, 1499.043 994.235, 1509.532 957.500 C 1512.045 948.700, 1516.070 934.975, 1518.477 927 C 1526.491 900.450, 1528.318 892.785, 1528.411 885.331 C 1528.541 874.865, 1525.698 871.613, 1513.583 868.371 C 1509.492 867.276, 1493.175 867.022, 1429.938 867.070 L 1351.377 867.130 1346.677 883.315 M 513.500 944.234 C 467.778 974.066, 444.834 990.377, 422.809 1008.704 C 412.756 1017.069, 388 1040.841, 388 1042.128 C 388 1042.561, 402.512 1042.793, 420.250 1042.642 C 460.110 1042.305, 464.585 1041.437, 481 1030.858 C 494.119 1022.403, 500.533 1011.738, 507.976 986 C 511.613 973.421, 520.953 941.833, 521.503 940.250 C 521.742 939.563, 521.839 939.003, 521.719 939.007 C 521.598 939.011, 517.900 941.364, 513.500 944.234" stroke="none" fill="#0e2a58" fill-rule="evenodd"/><path d="M 0 1024 L 0 2048.001 1024.250 2047.750 L 2048.500 2047.500 2048.750 1023.750 L 2049.001 0 1024.500 0 L 0 0 0 1024 M 0.498 1024.500 C 0.498 1587.700, 0.611 1817.950, 0.750 1536.167 C 0.889 1254.384, 0.889 793.584, 0.750 512.167 C 0.611 230.750, 0.498 461.300, 0.498 1024.500 M 1495.129 567.463 C 1495.384 567.717, 1501.871 568.410, 1509.546 569.003 C 1546.404 571.849, 1587.916 578.533, 1625 587.592 C 1706.110 607.407, 1770.092 642.670, 1804.464 686.500 C 1822.305 709.250, 1833.467 734.760, 1838.155 763.500 C 1840.149 775.726, 1839.828 809.127, 1837.598 821.500 C 1827.707 876.363, 1801.044 925.192, 1748.047 985.500 C 1746.114 987.700, 1736.875 997.301, 1727.516 1006.836 C 1692.709 1042.297, 1647.414 1079.275, 1596.571 1113.737 C 1585.889 1120.977, 1560.956 1137, 1560.371 1137 C 1560.117 1137, 1556.668 1139.187, 1552.705 1141.860 C 1544.440 1147.436, 1517.985 1162.865, 1504 1170.265 C 1498.775 1173.030, 1491.522 1177.012, 1487.882 1179.113 C 1479.049 1184.213, 1427.057 1209.936, 1409.500 1217.893 C 1390.409 1226.545, 1377.917 1232.102, 1369 1235.908 C 1364.875 1237.669, 1360.150 1239.733, 1358.500 1240.494 C 1329.199 1254.015, 1236.798 1288.036, 1199.500 1299.035 C 1196.200 1300.008, 1186.975 1302.850, 1179 1305.350 C 1171.025 1307.850, 1162.025 1310.558, 1159 1311.368 C 1155.975 1312.177, 1149.675 1313.945, 1145 1315.296 C 1115.133 1323.926, 1066.305 1336.352, 1034 1343.543 C 1000.822 1350.929, 941.707 1362.284, 925.500 1364.384 C 923.300 1364.669, 914.525 1366.024, 906 1367.396 C 897.475 1368.768, 885.550 1370.609, 879.500 1371.488 C 873.450 1372.366, 867.375 1373.270, 866 1373.495 C 856.706 1375.019, 818.411 1379.629, 803.500 1381.019 C 788.320 1382.434, 783.226 1382.922, 778 1383.463 C 775.525 1383.719, 769.498 1384.211, 764.606 1384.556 C 759.714 1384.900, 754.539 1385.323, 753.106 1385.495 C 751.673 1385.667, 743.750 1386.102, 735.500 1386.462 C 727.250 1386.821, 718.475 1387.289, 716 1387.501 C 694.013 1389.383, 597.896 1390.150, 560.250 1388.744 C 542.238 1388.071, 508.500 1385.753, 499 1384.535 C 497.075 1384.288, 491 1383.595, 485.500 1382.994 C 413.228 1375.102, 343.314 1358.077, 290.366 1335.478 C 260.990 1322.940, 242.248 1312.198, 219.794 1295.030 C 185.775 1269.019, 163.019 1233.948, 158.132 1200 C 154.085 1171.888, 157.899 1143.557, 169.985 1111.943 C 174.601 1099.871, 183.471 1081, 184.530 1081 C 184.811 1081, 184.189 1082.688, 183.149 1084.750 C 178.699 1093.573, 171.981 1113.408, 169.568 1124.852 C 164.684 1148.015, 164.260 1174.850, 168.466 1194.648 C 175.115 1225.950, 195.610 1257.704, 225.230 1282.598 C 249.306 1302.833, 290.972 1325.276, 329 1338.492 C 357.927 1348.546, 375.427 1353.287, 414.372 1361.617 C 418.277 1362.452, 450.433 1367.822, 455.266 1368.445 C 469.688 1370.307, 494.785 1372.949, 503.500 1373.524 C 509 1373.886, 514.580 1374.349, 515.901 1374.553 C 517.221 1374.756, 526.896 1375.192, 537.401 1375.521 C 547.905 1375.850, 557.534 1376.332, 558.799 1376.591 C 561.710 1377.188, 636.121 1377.123, 645.500 1376.515 C 649.350 1376.266, 662.400 1375.586, 674.500 1375.005 C 686.600 1374.424, 698.975 1373.739, 702 1373.483 C 705.025 1373.226, 713.575 1372.548, 721 1371.975 C 728.425 1371.403, 736.525 1370.739, 739 1370.500 C 741.475 1370.262, 746.650 1369.812, 750.500 1369.502 C 754.350 1369.192, 760.875 1368.517, 765 1368.002 C 769.125 1367.487, 774.525 1366.847, 777 1366.579 C 835.144 1360.283, 933.440 1343.191, 978.744 1331.499 C 982.178 1330.613, 985.778 1329.728, 986.744 1329.533 C 998.766 1327.105, 1055.600 1312.012, 1086.500 1303.041 C 1112.636 1295.453, 1199.922 1266.316, 1209.500 1261.982 C 1210.600 1261.485, 1218.700 1258.325, 1227.500 1254.960 C 1255.821 1244.131, 1302.744 1224.291, 1327 1212.889 C 1351.356 1201.439, 1397.251 1178.275, 1410 1170.996 C 1416.875 1167.070, 1427.450 1161.327, 1433.500 1158.233 C 1439.550 1155.139, 1446.975 1151.199, 1450 1149.478 C 1453.025 1147.757, 1460.225 1143.730, 1466 1140.530 C 1481.745 1131.806, 1498.308 1122.200, 1535.500 1100.226 C 1577.300 1075.528, 1640.567 1033.234, 1638.621 1031.288 C 1638.352 1031.019, 1636.415 1032.112, 1634.316 1033.716 C 1623.697 1041.832, 1619.517 1044.851, 1619.257 1044.591 C 1619.100 1044.433, 1620.066 1042.323, 1621.405 1039.902 C 1626.385 1030.894, 1640.772 991.004, 1644.272 976.500 C 1644.537 975.400, 1647.032 966.625, 1649.817 957 C 1668.603 892.056, 1669.946 885.825, 1669.980 863.443 C 1670.038 825.156, 1657.728 798.814, 1630.842 779.691 C 1614.474 768.049, 1587.326 759.217, 1561.500 757.131 C 1555.450 756.642, 1480.192 756.236, 1394.260 756.229 L 1238.019 756.215 1236.957 760.357 C 1235.202 767.196, 1231 782.011, 1228.548 790 C 1227.282 794.125, 1224.350 804.025, 1222.033 812 C 1219.716 819.975, 1216.773 829.875, 1215.493 834 C 1212.608 843.297, 1203.461 875.065, 1200.952 884.500 C 1199.929 888.350, 1194.767 906.125, 1189.481 924 C 1184.196 941.875, 1176.514 968.200, 1172.409 982.500 C 1168.305 996.800, 1164.099 1011.200, 1163.065 1014.500 C 1162.030 1017.800, 1159.958 1024.775, 1158.461 1030 C 1156.964 1035.225, 1153.813 1045.800, 1151.460 1053.500 C 1147.008 1068.064, 1142.588 1083.054, 1141.729 1086.500 C 1141.273 1088.330, 1135.677 1107.605, 1126.594 1138.628 C 1124.641 1145.298, 1122.584 1151.965, 1122.022 1153.443 C 1121.460 1154.921, 1121 1156.256, 1121 1156.410 C 1121 1156.563, 1185.463 1156.647, 1264.250 1156.595 C 1343.037 1156.543, 1412.450 1156.725, 1418.500 1157 L 1429.500 1157.500 1420.500 1161.601 C 1401.306 1170.346, 1419.258 1169.500, 1252.833 1169.500 C 1171.617 1169.500, 1104.885 1169.218, 1104.540 1168.874 C 1103.990 1168.324, 1112.591 1136.249, 1116.572 1124 C 1117.376 1121.525, 1119.797 1113.425, 1121.951 1106 C 1125.928 1092.289, 1131.060 1074.720, 1147.067 1020 C 1151.975 1003.225, 1157.168 985.718, 1158.607 981.096 C 1160.047 976.474, 1163.369 965.224, 1165.990 956.096 C 1172.420 933.702, 1182.504 899.008, 1189.998 873.500 C 1193.391 861.950, 1200.850 836.300, 1206.574 816.500 C 1212.297 796.700, 1218.586 775.100, 1220.548 768.500 C 1222.511 761.900, 1225.010 753.460, 1226.102 749.744 L 1228.088 742.988 1392.794 743.084 C 1487.637 743.139, 1561.105 743.576, 1566 744.115 C 1578.736 745.517, 1589.219 747.712, 1602 751.650 C 1624.344 758.536, 1638.482 766.460, 1651.547 779.419 C 1664.320 792.088, 1672.396 805.176, 1677.824 822 C 1685.212 844.897, 1685.071 878.007, 1677.460 908 C 1671.935 929.771, 1663.533 959.794, 1660.948 967 C 1660.455 968.375, 1658.280 975.800, 1656.115 983.500 C 1652.353 996.876, 1648.985 1008.404, 1645.538 1019.703 C 1644.665 1022.564, 1642.724 1026.363, 1641.225 1028.144 C 1639.726 1029.925, 1638.710 1031.634, 1638.966 1031.941 C 1639.979 1033.156, 1589.830 1073.014, 1564 1091.524 C 1557.125 1096.450, 1551.275 1100.771, 1551 1101.126 C 1550.367 1101.943, 1503.374 1133.393, 1496 1137.935 C 1452.692 1164.607, 1422.709 1181.552, 1371.664 1208.204 C 1370.655 1208.731, 1370.021 1209.355, 1370.257 1209.590 C 1370.672 1210.006, 1380.408 1205.960, 1388.500 1202.008 C 1390.700 1200.933, 1399.700 1196.856, 1408.500 1192.947 C 1440.885 1178.561, 1492.149 1152.164, 1526.500 1132.186 C 1557.214 1114.324, 1575.190 1103.041, 1604 1083.542 C 1626.492 1068.320, 1640.535 1058.012, 1667.099 1037.228 C 1693.190 1016.814, 1719.640 991.782, 1745.051 963.458 C 1761.632 944.974, 1783.580 913.226, 1795.141 891 C 1813.179 856.319, 1822 823.110, 1822 789.877 C 1822 751.085, 1805.952 712.828, 1777.349 683.434 C 1744.804 649.989, 1697.751 624.538, 1637 607.518 C 1591.737 594.837, 1548.726 588.739, 1485.500 586.039 C 1466.309 585.219, 1413.197 585.499, 1396.500 586.507 C 1392.100 586.773, 1380.625 587.457, 1371 588.027 C 1336.983 590.042, 1285.978 595.143, 1256 599.529 C 1244.629 601.193, 1219.254 605.373, 1204 608.096 C 1200.975 608.636, 1194.450 609.752, 1189.500 610.576 C 1165.632 614.552, 1102.412 627.988, 1075 634.910 C 1044.294 642.664, 1013.050 651.006, 1001.500 654.534 C 997.100 655.879, 984.050 659.861, 972.500 663.385 C 921.785 678.856, 889.352 690.087, 844.500 707.707 C 805.367 723.081, 767 740.117, 767 742.118 C 767 742.594, 770.038 741.823, 773.750 740.404 C 777.462 738.986, 782.300 737.258, 784.500 736.563 C 786.700 735.868, 794.575 733.033, 802 730.262 C 830.876 719.488, 879.788 703.844, 929 689.642 C 941.943 685.907, 968.484 678.739, 974 677.489 C 974.825 677.302, 984.725 674.886, 996 672.119 C 1059.439 656.551, 1132.251 643.477, 1186 638.002 C 1191.775 637.414, 1198.075 636.734, 1200 636.490 C 1205.391 635.808, 1237.559 633.245, 1256.500 631.990 C 1302.416 628.945, 1369.800 628.761, 1409 631.573 C 1471.137 636.030, 1517.938 643.009, 1566 654.984 C 1619.223 668.246, 1655.863 683.132, 1689.539 705.176 C 1706.722 716.423, 1715.798 723.872, 1728.053 736.783 C 1756.281 766.522, 1769 795.775, 1769 830.956 C 1769 854.697, 1763.404 876.375, 1750.807 901.435 C 1737.390 928.128, 1719.409 952.107, 1687.611 985.717 C 1683.822 989.721, 1680.124 993.786, 1679.393 994.749 C 1678.662 995.712, 1678.049 996.040, 1678.032 995.477 C 1677.979 993.790, 1682.858 975.043, 1685.443 967 C 1692.250 945.814, 1702.308 907.038, 1704.508 893.500 C 1705.401 888, 1706.279 876.975, 1706.459 869 C 1707.484 823.453, 1696.297 791.511, 1669.721 764.101 C 1649.476 743.220, 1619.224 729.213, 1579.500 722.327 C 1570.299 720.732, 1552.432 720.547, 1356 720.011 C 1238.575 719.690, 1142.275 719.292, 1142 719.125 C 1141.124 718.594, 1173.606 712.161, 1200.500 707.540 C 1241.866 700.431, 1277.436 695.569, 1321.500 691.001 C 1331.342 689.981, 1360.039 687.768, 1389 685.796 C 1411.687 684.251, 1482.776 684.312, 1507 685.897 C 1541.469 688.152, 1579.211 692.026, 1595.934 695.025 C 1608.567 697.291, 1604.799 695.184, 1582.500 687.511 C 1578.650 686.186, 1572.800 684.154, 1569.500 682.994 C 1563.442 680.865, 1533.845 672.445, 1520 668.912 C 1510.500 666.487, 1481.296 660.516, 1469.500 658.587 C 1443.664 654.360, 1415.345 651.351, 1381.746 649.261 C 1362.482 648.064, 1283.480 648.436, 1262.500 649.824 C 1244.983 650.982, 1217.506 653.266, 1205.500 654.562 C 1176.234 657.721, 1133.711 663.582, 1119.040 666.480 C 1117.688 666.747, 1112.513 667.657, 1107.540 668.502 C 1102.568 669.347, 1095.575 670.695, 1092 671.497 C 1088.425 672.300, 1079.875 674.107, 1073 675.514 C 1060.530 678.065, 1045.661 681.448, 1022 687.115 C 1015.125 688.761, 1005.675 691.023, 1001 692.140 C 988.578 695.109, 937.975 709.368, 920 714.965 C 905.899 719.355, 903.327 719.845, 891.500 720.393 C 872.163 721.289, 852.250 725.751, 834 733.278 C 823.469 737.621, 802.445 749.136, 794.590 754.862 C 781.731 764.237, 763.080 783.602, 752.905 798.144 C 743.446 811.662, 743.844 811.286, 745.648 805 C 746.516 801.975, 748.019 796.575, 748.987 793 C 753.893 774.888, 755.333 769.738, 757.934 761 C 759.489 755.775, 762.430 745.650, 764.469 738.500 C 766.508 731.350, 768.563 724.263, 769.036 722.750 L 769.896 720 677.565 720 L 585.233 720 584.754 722.250 C 584.491 723.487, 582.675 729.900, 580.719 736.500 C 578.763 743.100, 574.161 758.625, 570.491 771 C 566.821 783.375, 562.287 798.900, 560.414 805.500 C 550.096 841.859, 552.646 837.158, 539.731 843.635 C 514.001 856.539, 459.940 889.605, 429.500 911.056 C 414.122 921.892, 377.898 950.151, 368 959.032 C 353.914 971.671, 347.915 977.378, 336.360 989.133 C 316.830 1009, 310.140 1016.919, 296.975 1035.750 C 294.572 1039.188, 291.907 1042.039, 291.053 1042.086 C 290.199 1042.134, 286.004 1042.292, 281.732 1042.438 C 277.459 1042.584, 273.733 1042.933, 273.452 1043.215 C 273.171 1043.496, 269.787 1054.250, 265.934 1067.113 C 262.080 1079.976, 256.288 1099.275, 253.063 1110 C 249.837 1120.725, 243.957 1140.525, 239.996 1154 C 236.035 1167.475, 231.982 1181.200, 230.991 1184.500 C 229.999 1187.800, 229.525 1190.858, 229.938 1191.295 C 230.351 1191.732, 293.422 1191.932, 370.095 1191.740 C 507.420 1191.396, 509.688 1191.359, 522.115 1189.238 C 562.881 1182.278, 595.918 1165.929, 621.900 1139.856 C 627.284 1134.453, 633.672 1127.260, 636.095 1123.871 C 638.518 1120.482, 641.908 1115.817, 643.629 1113.504 C 647.508 1108.292, 657.362 1091.623, 659.997 1085.817 L 661.956 1081.500 662.103 1084.750 C 662.184 1086.537, 662.330 1088.338, 662.428 1088.750 C 662.526 1089.162, 662.966 1092.650, 663.407 1096.500 C 664.370 1104.922, 669.758 1121.837, 674.184 1130.333 C 688.749 1158.290, 712.278 1176.352, 747.500 1186.613 C 770.854 1193.416, 750.059 1192.983, 1056 1193.036 L 1333.500 1193.085 1328 1195.418 C 1255.967 1225.979, 1189.632 1250.200, 1121.500 1270.818 C 1108.850 1274.646, 1097.600 1277.999, 1096.500 1278.268 C 1095.400 1278.537, 1088.200 1280.583, 1080.500 1282.815 C 1055.147 1290.162, 998.550 1304.492, 986.992 1306.490 C 985.071 1306.822, 981.925 1307.492, 980 1307.979 C 971.800 1310.054, 963.130 1312.011, 958 1312.945 C 954.975 1313.496, 948.225 1314.859, 943 1315.975 C 937.775 1317.090, 932.150 1318.250, 930.500 1318.552 C 928.850 1318.854, 924.350 1319.717, 920.500 1320.469 C 904.860 1323.524, 890.817 1326.018, 878.500 1327.928 C 855.288 1331.526, 839.605 1333.861, 834.500 1334.478 C 831.750 1334.811, 826.800 1335.504, 823.500 1336.019 C 820.200 1336.534, 809.400 1337.874, 799.500 1338.998 C 789.600 1340.122, 779.925 1341.234, 778 1341.470 C 776.075 1341.706, 771.125 1342.175, 767 1342.513 C 762.875 1342.851, 758.825 1343.293, 758 1343.496 C 757.175 1343.698, 751.325 1344.169, 745 1344.541 C 738.675 1344.914, 733.275 1345.351, 733 1345.512 C 732.725 1345.673, 726.425 1346.128, 719 1346.522 C 711.575 1346.917, 705.262 1347.376, 704.972 1347.542 C 704.681 1347.708, 696.356 1348.162, 686.472 1348.550 C 676.587 1348.938, 668.245 1349.399, 667.932 1349.574 C 667.620 1349.749, 650.970 1350.199, 630.932 1350.573 C 562.479 1351.850, 485.161 1346.712, 433.500 1337.452 C 338.202 1320.371, 272.920 1293.019, 231.096 1252.647 C 201.382 1223.964, 187.626 1192.340, 187.533 1152.500 C 187.437 1111.596, 202.583 1071.512, 234 1029.522 C 264.594 988.631, 297.961 956.609, 355.967 912.470 C 385.371 890.096, 442.106 854.549, 506 818.470 C 527.451 806.358, 530 804.867, 530 804.439 C 530 803.947, 526.653 805.278, 521.500 807.820 C 519.300 808.905, 512.863 811.874, 507.196 814.418 C 485.815 824.015, 436.235 849.887, 416 862.006 C 413.525 863.488, 408.848 866.158, 405.607 867.940 C 388.234 877.488, 344.783 905.559, 324.708 920.204 C 285.046 949.139, 262.362 967.843, 237.649 991.990 C 222.913 1006.388, 198.628 1032.902, 191.386 1042.500 C 189.310 1045.250, 187.350 1047.725, 187.029 1048 C 185.934 1048.939, 174.466 1065.483, 169.341 1073.518 C 143.134 1114.607, 127.854 1161.374, 126.548 1204.500 C 125.882 1226.478, 128.526 1244.357, 135.612 1265.789 C 146.085 1297.464, 165.377 1325.909, 193.201 1350.700 C 207.613 1363.540, 218.728 1371.853, 234.989 1381.956 C 248.107 1390.105, 279.383 1406.494, 294 1412.879 C 310.071 1419.898, 353.075 1434.294, 374 1439.658 C 386.613 1442.892, 412.661 1448.854, 419 1449.959 C 422.025 1450.486, 429.675 1451.841, 436 1452.970 C 461.823 1457.581, 499.426 1462.111, 524 1463.573 C 529.225 1463.884, 534.850 1464.368, 536.500 1464.649 C 538.150 1464.930, 562.066 1465.405, 589.646 1465.705 C 634.058 1466.187, 673.020 1465.346, 694.500 1463.442 C 697.250 1463.198, 708.500 1462.310, 719.500 1461.469 C 730.500 1460.627, 742.875 1459.522, 747 1459.012 C 751.125 1458.503, 756.975 1457.810, 760 1457.474 C 763.025 1457.137, 770.675 1456.206, 777 1455.404 C 783.325 1454.603, 790.525 1453.718, 793 1453.439 C 797.453 1452.936, 807.386 1451.481, 827.250 1448.421 C 839.032 1446.606, 837.944 1446.787, 857 1443.486 C 864.975 1442.105, 873.300 1440.526, 875.500 1439.977 C 877.700 1439.429, 883.100 1438.291, 887.500 1437.449 C 896.720 1435.685, 907.937 1433.283, 913 1431.989 C 914.925 1431.496, 918.075 1430.823, 920 1430.491 C 932.037 1428.418, 984.797 1415.083, 1009 1407.995 C 1018.625 1405.177, 1027.400 1402.609, 1028.500 1402.288 C 1033.491 1400.832, 1028.530 1403.062, 1018.500 1406.782 C 987.437 1418.303, 978.891 1421.329, 960.500 1427.321 C 927.936 1437.930, 919.217 1440.632, 905 1444.517 C 897.575 1446.546, 888.575 1449.031, 885 1450.039 C 878.971 1451.738, 844.875 1459.537, 818 1465.363 C 796.264 1470.076, 763.756 1475.742, 731 1480.528 C 710.476 1483.526, 664.294 1487.606, 634 1489.096 C 601.334 1490.703, 529.996 1489.289, 504 1486.519 C 501.525 1486.256, 493.875 1485.578, 487 1485.014 C 480.125 1484.449, 472.925 1483.773, 471 1483.510 C 467.813 1483.075, 467.724 1483.126, 470 1484.081 C 477.025 1487.029, 539.933 1494.991, 572 1496.992 C 581.625 1497.593, 591.525 1498.261, 594 1498.477 C 596.475 1498.693, 617.488 1499.430, 640.697 1500.114 C 674.194 1501.102, 691.615 1501.105, 725.197 1500.131 C 748.463 1499.455, 770.650 1498.693, 774.500 1498.436 C 778.350 1498.180, 791.850 1497.284, 804.500 1496.445 C 826.014 1495.019, 855.689 1492.516, 862.500 1491.553 C 864.150 1491.320, 869.100 1490.854, 873.500 1490.518 C 877.900 1490.182, 882.400 1489.724, 883.500 1489.500 C 884.600 1489.276, 887.975 1488.834, 891 1488.519 C 896.695 1487.925, 907.470 1486.537, 933.956 1482.984 C 964.006 1478.954, 1005.533 1471.881, 1034 1465.945 C 1058.475 1460.842, 1069.041 1458.685, 1075.500 1457.476 C 1084.309 1455.827, 1109.363 1449.854, 1129.629 1444.572 C 1135.199 1443.120, 1140.644 1441.761, 1141.728 1441.552 C 1143.447 1441.221, 1161.120 1436.289, 1178 1431.429 C 1218.392 1419.799, 1293.790 1394.237, 1331 1379.557 C 1367.699 1365.080, 1384.950 1357.798, 1410.500 1346.004 C 1434.391 1334.975, 1467.146 1318.840, 1481.500 1311.030 C 1487.550 1307.738, 1495.200 1303.628, 1498.500 1301.896 C 1503.480 1299.283, 1514.158 1293.286, 1537.500 1279.993 C 1539.150 1279.054, 1546.350 1274.698, 1553.500 1270.314 C 1605.994 1238.127, 1647.962 1209.229, 1687.500 1178.045 C 1694.367 1172.629, 1718.017 1153.106, 1719 1152.041 C 1719.275 1151.744, 1723.550 1147.909, 1728.500 1143.520 C 1781.222 1096.771, 1822.102 1048.700, 1855.226 994.500 C 1863.843 980.399, 1876.523 956.038, 1881.511 944 C 1888.104 928.088, 1889.360 924.903, 1892.949 915 C 1896.279 905.808, 1897.880 900.064, 1902.009 882.500 C 1905.969 865.653, 1907.504 850.770, 1907.476 829.500 C 1907.450 809.370, 1906.056 799.021, 1900.446 777.319 C 1885.952 721.246, 1848.621 672.902, 1793.500 638.825 C 1753.380 614.022, 1721.477 600.849, 1665.500 585.975 C 1648.184 581.374, 1607.563 574.052, 1588 572.006 C 1582.225 571.402, 1576.825 570.736, 1576 570.526 C 1574.346 570.106, 1566.639 569.466, 1545.500 567.993 C 1531.304 567.004, 1494.281 566.614, 1495.129 567.463 M 600.801 752.250 C 590.718 787.605, 580.427 823.174, 577.583 832.500 C 575.737 838.550, 574.001 844.400, 573.723 845.500 C 573.446 846.600, 571.147 854.576, 568.614 863.224 C 562.151 885.298, 551.323 922.806, 548.328 933.500 C 546.942 938.450, 544.554 946.550, 543.022 951.500 C 541.490 956.450, 539.019 964.775, 537.531 970 C 536.043 975.225, 533.929 982.650, 532.832 986.500 C 524.512 1015.708, 518.643 1028.041, 507.386 1039.974 C 496.755 1051.243, 483.868 1058.405, 465.521 1063.240 C 457.723 1065.295, 455.182 1065.365, 374.305 1065.720 L 291.109 1066.086 287.194 1078.793 C 285.041 1085.782, 282.290 1094.875, 281.082 1099 C 274.077 1122.908, 263.570 1159.172, 262.464 1163.258 L 261.177 1168.015 383.838 1167.921 C 456.264 1167.866, 509.776 1167.430, 514.500 1166.857 C 540.767 1163.673, 573.136 1150.637, 590.500 1136.249 C 622.629 1109.629, 643.064 1075.792, 656.479 1027 C 661.982 1006.985, 667.752 986.726, 671.005 976 C 678.540 951.152, 681.379 941.438, 688.978 914.500 C 693.478 898.550, 699.770 876.725, 702.961 866 C 706.153 855.275, 708.987 845.600, 709.260 844.500 C 709.533 843.400, 711.425 836.875, 713.464 830 C 715.503 823.125, 720.761 804.900, 725.149 789.500 C 729.537 774.100, 734.223 757.989, 735.563 753.698 C 736.903 749.407, 738 745.245, 738 744.448 C 738 743.198, 728.792 743, 670.720 743 L 603.439 743 600.801 752.250 M 881 744.531 C 836.364 750.757, 799.868 773.075, 772.306 811 C 765.444 820.442, 754.555 839.230, 750.231 849.091 C 746.536 857.516, 734.970 894.200, 726.928 923 C 725.315 928.775, 722.913 937.100, 721.590 941.500 C 719.344 948.970, 716.630 958.264, 702.371 1007.319 C 686.233 1062.838, 684.969 1069.533, 686.931 1089.129 C 690.780 1127.556, 712.381 1151.720, 754.261 1164.446 C 771.793 1169.773, 773.942 1169.842, 925.716 1169.931 L 1065.932 1170.014 1068.431 1161.757 C 1069.806 1157.216, 1071.584 1151.025, 1072.382 1148 C 1074.439 1140.203, 1080.677 1118.285, 1084.194 1106.500 C 1092.536 1078.547, 1095 1069.884, 1095 1068.510 C 1095 1067.175, 1079.527 1067.005, 959.436 1067.021 C 884.877 1067.031, 823.452 1066.779, 822.936 1066.461 C 820.721 1065.091, 821.684 1060.831, 832.654 1023.500 C 836.209 1011.400, 841.604 992.950, 844.642 982.500 C 855.041 946.729, 862.160 922.499, 864.034 916.500 C 865.064 913.200, 868.203 902.903, 871.008 893.617 C 876.894 874.134, 880.986 865.368, 887.570 858.133 C 893.181 851.968, 903.712 846.414, 912.500 844.986 C 916.159 844.392, 965.721 844.009, 1039.529 844.006 L 1160.557 844 1162.351 836.750 C 1164.465 828.205, 1170.060 808.351, 1180.459 772.500 C 1184.607 758.200, 1188 745.712, 1188 744.750 C 1188 743.091, 1180.289 743.005, 1039.250 743.103 C 921.656 743.185, 888.510 743.484, 881 744.531 M 614.155 757.711 C 613.253 759.396, 609.500 771.340, 606.440 782.264 C 605.706 784.885, 603.086 793.885, 600.618 802.264 C 596.464 816.367, 590.737 835.964, 579.362 875 C 576.878 883.525, 573.794 893.875, 572.508 898 C 571.223 902.125, 567.637 914.500, 564.541 925.500 C 552.907 966.832, 549.623 978.041, 543.299 998 C 533.902 1027.661, 528.955 1037.220, 516.177 1050.414 C 505.575 1061.362, 493.263 1068.613, 476.880 1073.557 C 459.625 1078.763, 455.435 1078.988, 375.290 1078.994 L 301.080 1079 299.922 1083.250 C 299.284 1085.588, 297.934 1090.200, 296.920 1093.500 C 294.329 1101.938, 287.466 1125.292, 283.402 1139.500 C 281.514 1146.100, 279.721 1152.287, 279.418 1153.250 C 278.894 1154.909, 284.576 1155, 389.209 1155 C 499.355 1155, 507.207 1154.791, 524 1151.420 C 556.358 1144.923, 588.190 1125.365, 607.211 1100.294 C 621.688 1081.214, 635.397 1052.982, 641.347 1030 C 642.130 1026.975, 643.906 1020.675, 645.293 1016 C 649.309 1002.466, 656.136 979.019, 666.404 943.500 C 671.651 925.350, 678 903.525, 680.514 895 C 683.028 886.475, 686.146 875.675, 687.445 871 C 688.743 866.325, 692.155 854.400, 695.026 844.500 C 697.897 834.600, 700.598 825.150, 701.030 823.500 C 701.461 821.850, 703.003 816.675, 704.456 812 C 709.259 796.546, 720 758.924, 720 757.553 C 720 756.442, 710.792 756.179, 667.561 756.055 C 617.943 755.913, 615.069 756.003, 614.155 757.711 M 885.500 757.489 C 867.339 760.095, 855.258 763.898, 836.918 772.781 C 809.338 786.140, 787.839 807.973, 769.042 841.708 C 762.067 854.229, 758.418 864.334, 747.995 900 C 744.057 913.475, 739.318 929.450, 737.464 935.500 C 733.574 948.192, 727.594 968.570, 724.993 978 C 724.007 981.575, 721.801 989.225, 720.091 995 C 718.381 1000.775, 716.742 1006.812, 716.448 1008.416 C 716.154 1010.020, 715.684 1011.703, 715.403 1012.156 C 715.123 1012.610, 713.314 1018.498, 711.383 1025.240 C 700.633 1062.773, 699.593 1068.246, 700.312 1083.500 C 701.913 1117.434, 717.965 1137.524, 753.387 1149.929 C 772.575 1156.648, 766.855 1156.421, 918.167 1156.462 C 993.333 1156.483, 1055.165 1156.168, 1055.571 1155.762 C 1056.318 1155.015, 1061.909 1136.394, 1066.608 1119 C 1068.948 1110.337, 1076.729 1083.892, 1077.641 1081.500 C 1077.894 1080.837, 1035.189 1080.500, 950.761 1080.500 C 829.252 1080.500, 823.283 1080.416, 818.696 1078.646 C 815.237 1077.312, 813.137 1075.651, 811.196 1072.714 C 807.739 1067.483, 807.785 1061.821, 811.390 1048.941 C 817.424 1027.383, 825.421 999.704, 828.998 988 C 831.099 981.125, 835.815 965.150, 839.479 952.500 C 843.143 939.850, 847.205 925.900, 848.505 921.500 C 849.805 917.100, 852.294 908.550, 854.037 902.500 C 860.143 881.304, 865.156 867.440, 869.225 860.500 C 874.621 851.297, 884.758 841.382, 893.008 837.240 C 905.738 830.847, 901.529 831.036, 1031.271 831.017 L 1149.043 831 1149.931 828.750 C 1150.419 827.513, 1151.521 824.025, 1152.379 821 C 1153.237 817.975, 1156.158 808.075, 1158.870 799 C 1166.059 774.941, 1170.797 757.592, 1170.381 756.858 C 1170.180 756.505, 1108.025 756.212, 1032.258 756.207 C 924.942 756.199, 892.511 756.482, 885.500 757.489 M 1321.551 837.217 C 1320.569 840.673, 1317.607 850.700, 1314.969 859.500 C 1309.938 876.283, 1294.293 930.344, 1292.975 935.500 C 1291.649 940.687, 1280.337 979.067, 1277.206 989 C 1274.189 998.572, 1268.256 1018.972, 1264.992 1031 C 1264.022 1034.575, 1260.770 1046.050, 1257.765 1056.500 C 1254.761 1066.950, 1252.029 1076.625, 1251.695 1078 L 1251.088 1080.500 1346.794 1080.388 C 1448.101 1080.270, 1449.572 1080.209, 1466.391 1075.417 C 1484.281 1070.319, 1496.201 1062.776, 1508.787 1048.587 C 1524.317 1031.079, 1533.334 1010.098, 1549.008 955 C 1563.837 902.873, 1564.984 897.847, 1564.993 884.960 C 1565.005 867.097, 1561.163 857.124, 1550.386 847.043 C 1543.618 840.711, 1537.383 837.343, 1525.917 833.823 L 1518.500 831.546 1420.918 831.240 L 1323.336 830.935 1321.551 837.217 M 1330.791 853.216 C 1328.459 861.679, 1315.933 904.770, 1310.505 923 C 1309.276 927.125, 1302.609 950.300, 1295.689 974.500 C 1288.769 998.700, 1282.376 1020.525, 1281.483 1023 C 1279.218 1029.276, 1268.915 1066.249, 1269.319 1066.652 C 1269.501 1066.834, 1308.769 1066.996, 1356.582 1067.011 C 1452.997 1067.042, 1453.565 1067.010, 1469.452 1060.603 C 1480.403 1056.188, 1486.946 1051.739, 1495.614 1042.817 C 1509.545 1028.477, 1518.550 1010.398, 1528.493 976.803 C 1537.926 944.929, 1543.510 925.631, 1549.270 905 C 1552.298 894.154, 1552.250 875.759, 1549.174 867.921 C 1545.111 857.568, 1537.801 851.483, 1523.629 846.655 C 1517.617 844.608, 1515.736 844.562, 1425.425 844.249 L 1333.349 843.931 1330.791 853.216 M 916.687 868.141 C 909.995 869.130, 905.207 872.504, 901.282 879 C 897.844 884.688, 897.033 887.152, 884.480 930 C 881.338 940.725, 876.786 956.250, 874.364 964.500 C 867.476 987.961, 867.171 989.011, 859.370 1015.983 C 855.317 1029.999, 852 1042.036, 852 1042.733 C 852 1043.749, 877.999 1044, 983.343 1044 L 1114.687 1044 1118.745 1031.250 C 1120.977 1024.237, 1124.694 1011.975, 1127.004 1004 C 1129.315 996.025, 1133.837 980.500, 1137.054 969.500 C 1140.272 958.500, 1145.668 940.050, 1149.046 928.500 C 1152.424 916.950, 1157.846 899.042, 1161.094 888.704 C 1164.342 878.367, 1167 869.313, 1167 868.585 C 1167 867.494, 1145.459 867.276, 1044.250 867.346 C 976.737 867.392, 919.334 867.750, 916.687 868.141 M 1346.677 883.315 C 1344.093 892.217, 1338.553 911.200, 1334.366 925.500 C 1327.024 950.579, 1324.662 958.833, 1320.176 975.073 C 1319.026 979.239, 1317.657 983.771, 1317.135 985.146 C 1316.612 986.520, 1312.720 999.739, 1308.485 1014.521 C 1304.250 1029.303, 1300.560 1041.983, 1300.285 1042.699 C 1299.479 1044.801, 1435.430 1044.576, 1447.619 1042.455 C 1461.204 1040.091, 1468.764 1036.036, 1479.384 1025.416 C 1489.846 1014.954, 1499.043 994.235, 1509.532 957.500 C 1512.045 948.700, 1516.070 934.975, 1518.477 927 C 1526.491 900.450, 1528.318 892.785, 1528.411 885.331 C 1528.541 874.865, 1525.698 871.613, 1513.583 868.371 C 1509.492 867.276, 1493.175 867.022, 1429.938 867.070 L 1351.377 867.130 1346.677 883.315 M 513.500 944.234 C 467.778 974.066, 444.834 990.377, 422.809 1008.704 C 412.756 1017.069, 388 1040.841, 388 1042.128 C 388 1042.561, 402.512 1042.793, 420.250 1042.642 C 460.110 1042.305, 464.585 1041.437, 481 1030.858 C 494.119 1022.403, 500.533 1011.738, 507.976 986 C 511.613 973.421, 520.953 941.833, 521.503 940.250 C 521.742 939.563, 521.839 939.003, 521.719 939.007 C 521.598 939.011, 517.900 941.364, 513.500 944.234" stroke="none" fill="#ffffff" fill-rule="evenodd"/></svg>